<mxfile host="drawio-plugin" modified="2025-01-16T00:15:22.995Z" agent="Mozilla/5.0 (Windows NT 10.0; Win64; x64) AppleWebKit/537.36 (KHTML, like Gecko) Chrome/122.0.0.0 Safari/537.36" version="22.1.22" etag="7ZykPNT7ngieHxaiatGW" type="embed">
  <diagram id="nzs7EFVyyMUs7etMbrRP" name="Page-1">
    <mxGraphModel dx="2014" dy="392" grid="1" gridSize="10" guides="1" tooltips="1" connect="1" arrows="1" fold="1" page="1" pageScale="1" pageWidth="850" pageHeight="1100" math="0" shadow="0">
      <root>
        <mxCell id="0" />
        <mxCell id="1" parent="0" />
        <mxCell id="2" value="" style="shape=image;verticalLabelPosition=bottom;labelBackgroundColor=default;verticalAlign=top;aspect=fixed;imageAspect=0;image=data:image/png,iVBORw0KGgoAAAANSUhEUgAAAqkAAAGFCAYAAADeoGoXAAAAAXNSR0IArs4c6QAAAARnQU1BAACxjwv8YQUAAAAJcEhZcwAADsMAAA7DAcdvqGQAAIntSURBVHhe7b0J2BXVned/EgO0LBIkLLKIIQaUJRKWJtAII4ptgIAOE+jg0800IbJoHINtOxlZhsWZdnikfVRAupVpxoRpyNACAsNAGgNhpB2WQFgSCU2LKKuAyGIDJvn/P8f7u563qLrLu9573+/neeq5Vaeqzr5863dO1f3cl7/85d87IYQQQgghCojPp36FELWAwYMHu02bNrlt27a5NWvWuJ49e6bOCCGEEIWFLKlCCCGEEKLgkCVVCCGEEEIUHBKpQgghhBCi4JBIFUIIIYQQBYdEqhBCCCGEKDgkUoUQQgghRMEhkSqEEEIIIQoOiVQhhBBCCFFwSKQKIYQQQoiCQyJVCCGEEEIUHBKpQgghhBCi4CiYv0WtX7++a9mypbvhhhvcF77whZSrEEIIIYQodj755BP30UcfuePHj7tLly6lXDNTECL1S1/6kmvXrp07d+6cu3jxovvd736XOiOEgLZt27ojR46kjoQQQoji4brrrvO/DRo0cI0bN3bvvPOO++CDD7xbJmp8uh8LKgL15MmT7vz58xKoQgghhBAlxG9/+1u/YUk9evSou+WWW7z+y0aNi1Sm+LGgXrlyJeUihBBCCCFKEcQqug/9l40aF6msQWWKXwghhBBClD7oPvRfNmpcpPKSlKb4hRBCCCFqD7m8JK9PUAkhhBBCiGqDKf9ckEgVQgghhBAFh0SqEEIIIYQoOCRShRBCCCFEwSGRKoQQQgghCg6J1ICBAwe6n/zkJ+7pp59OuZSfr33ta27x4sVu/vz5KRchag933nmne+aZZ9yoUaNSLrnTsWNH91/+y39x48ePT7kIIYSojRSdSDXxt3r1aj8IRnniiSfc66+/7q/h2kx885vfdP/jf/wP9/3vfz/lIkRpELYTNtrEsmXL3H/+z//Zi8Cqhr86bt++vfvKV76Sckkm2g5vvPFG/y90X/3qV/2xEEKI2klRW1IZyAYMGJA6+tQCc/vtt7tPPvkk5ZIZBsNcPiYrRLHy/vvvu7lz53qReuzYMff1r3/d/fCHP3Q9evRIXVE1vPbaa+7b3/62t4hmI9oOt27d6h588EH3F3/xFykXIYQQtZHPffnLX/59ar9G6Nmzpzty5EjqKDtYiB5//HF33XXXuT/4gz9wmzdvds8//7w/9+///b93Q4YM8d/funz5snv22WfdL3/5S/enf/qn3r1hw4buwoUL7h//8R/dpUuX/CBqH5P9+OOP3c9+9jP3b/7Nv/H/K9uoUSPXrFkz/z+zP/7xj93atWu9CB47dqz/JXz82rhxo/vbv/1b78cjjzzi7rrrLle3bl138uRJ/7+0Z8+edZMmTfLnhSgvbdu2LVc74V89wvo3efJk/2C3ZcsWN2fOHG/F/M53vuOaNGni/5oYgThv3jw3bNgw961vfcs1btzY/9kG7n/1V3/l6/ef/MmfuJtuusl97nOfc7/+9a/d//7f/9tNnDjRnTlzxvtDW9q9e7fr37+/b2v79u3z52lXtAn+Co94rVq1yvuR1A4PHDjgnnrqqYztjiU6+I0A/+IXv+jD//DDD71ldsOGDd5PIYQQhQfj2vbt21NH8RStJZWB6oMPPnCdOnVyrVq18m6dO3d2p0+f9oOUwQB4//33u3fffdcPsgz09957rz/3f/7P//FWVwZshK6JADLurbfe8oNcgwYN3B//8R+766+/3k2YMMFPQTJALliwwP/3LIM8YbAxYJ46dcqfe+edd/y9QhQS1PXz58/7WQjWjf7Zn/2Zf2D7b//tv7lf/OIX7o/+6I/8w9bgwYO9aH3uuefcypUrvVDF+jpmzBgvBFlC8Hd/93feLwOR+KMf/chfc+LEiZTrZ7Rp08bt2bPH34ffhIGwTWqHkK3dGQjfn/70p77N8oBpbVwIIUTxUrQilUETKynWTgZWrEOtW7f2buHfrHbt2tVbVhkIGQR37drlrTYMtFhJAavOz3/+cy984Z//+Z/dwoULvUWHAbFevXquX79+3n/OMZBiWTVLzW233ebDIVwGb87xG4plIQqBf/3Xf/Xt4fOf/7y74447/GwEdZ/tzTff9GIRMYnFknZC3V+0aJEXsb169fJCFDH4N3/zN2758uVu5syZKZ+dfxDEOpoEVlfaDvchiJnZYKo/qR3CH/7hH2Zsd8ZvfvMbbz21NotQReAKIYQoXop6TSrWTqYHu3Xr5gczpg4RqSG8wMEU4w9+8AMvHJnarFOnjr82Caw8IQx2iFCm8ZmyNJjKZ8BnoGewxSLFGkDA/fe/r9GVFEJcA2s/qccIQqbsaQu0CdoGSwGo64hExCDXMZWO+Bs0aJCfsbh69ar7l3/5l5RvZYm2m0zkum4cwZyp3SVBOvTilRBCFDdFLVJ37NjhLShf/vKXvVUISw7W0hAGNAZd1t8NHTo0vb3wwgupK3KDaXwGYVtaAFhjsThhuWFjYEQUA+6ZhLAQNQGzDtRT1okeP37c12m+AhC2DdaBLlmyxP35n/+5+/u//3t//fDhw30bQDCyHKai4CcPceGsRxzvvfdexnYnhBCidClqkQp79+71FhWspXELcPfv3++nLEeMGOHXwLE+dfr06X4tK1OfDJK33HKLn8rMBFOVWEn5pM6jjz7q/cK6xADK1OXhw4d9OPbCCdYppkaFqEkQc6yVfuihh9yLL77oRSptZunSpf7FJCyjrLm29kHb4PukPNR94xvf8DMVZvWkDXB89913+7fvqeN80ipXsGyyBpaNFyZZj7pz586M7fD//b//l7HdCSGEKF2KXqTy1jFv0rP93//7f1Oun/EP//AP7o033vBTm7zljHWIF5pYL7pt2zZvqenQoYP/vmq4xi0KXwtgbR5ilEGaaVD8wdLEGrlXX33Vi2SsTN/73ve8OLC1dkLUFKznZBofCylT/awZ5c8qEJus02aan3rMlzF4QalFixZePDZt2tTfR3thGQsvT1HPqe8ISt7w50P9+cwW8DIVgpgXnhCm+PX2229nbIfEM1O7E0IIUboU3SeohKiN5PsJqkLCPhNln5QSQgghSvoTVEIIIYQQonSRSBVCCCGEEAWHpvuFKAKKebpfCCGEiKLpfiGEEEIIUZRIpAohhBBCiIJDIlUIIYQQQhQcEqlCCCGEEKLgkEgVQgghhBAFR0G83S+EEEIIIWoX2d7ur3GR+v+H7/7lX/4ldSSEiEPtRAghRCmRy7im6X4hhBBCCFFwSKQKIYQQQoiCQyJVCCGEEEIUHBKpQgghhBCi4JBIFUIIIYQQBYdEqhBCCCGEKDiK8hNUDRo0cI0bN3b16tVLuYhS4vLly+7cuXPu4sWLKRehT1AJIYQoJUryE1QI1ObNm0ugljCULWVMWQshhBCidlJ0IhULqqgdqKyFEEKI2kvRiVRZUGsPKmsxf/58t3Tp0tRRzTN48GC3fv16N378+JRLzUA8Nm3a5KZMmZJySSafayuTQis7IUTxUWtfnJo7d66bMGFC6qgs/fv3dy+99JL/LQ+jRo1yL7zwguvSpUvKpXSYOnWqW7ZsmVu8eHG58wcqmsciMz179nSvvfZatYgpwlqzZk21i6DazNq1a92AAQPc7NmzUy7J5HMtZUhZUqb5UpF7hRAiDr3dH8P999/vdu3a5TZv3uyPEbOIWkCAItD4LSQQxAjjMF5VIZZnzZrlXnzxRffxxx+nXMoHefvGG2+4b3/72yUp5oUQQghRMUpCpD7zzDNePGHhW7JkSVqohdZSE2yPPPKIv6ZNmzZu4MCB/h4seiaU7HrconBNv379vGUi12kswiU889cskWzsm5uJYODYzuXK3r173cmTJ12HDh1SLs7v48a5OKIiNjwO45nNasr1oUAORT3nyEv8CcsGyMOrV6/6PBVVC3n98ssve0vXtm3b/PQv08CAtfXNN9/M2R2/Xn31Ve/2j//4j+6v//qv/Ytuw4cPT1vSmOrlPraktoK7XZOLBc7ig9/hcRg/3JiOt7hC0rRz0rXmf7b4cR/u4f3cE1qUQz/M3yhcE5YNaSJuRlw8CDNcdsA1VibRuIbX2j7t0/KOe4H4UYaU5YIFC9LpwN3Cj8bNSLoXwviH7vgTLb8oXEN8SVsYvsUpjA/344+FZfkdl+a48hRCFB4lIVLr1KnjmjVr5mbOnOktdHfddVdaeEX52c9+5kaPHu3ee+89t3HjRjdy5EgvqkzIIewOHDjg96M88MADbt++felOPRvt2rVz9957r1u5cqUXagi0hg0b+jCJKx06bnSs9evX90KQeDdp0sS75Qvxxk/8YGM/KS1AWqBz587+NxS1iH7iyXbw4EE/XVgeyDOs0vhDPiBIw7J56623fPhJ5SUqj06dOrlVq1a5Xr16uePHj7sxY8b4AXzEiBH+QQR3ypmHsKj7hg0b3MMPP5we2G+++Wb/cHj33Xe7H/zgB77eUL5Dhgxx9913n6/7EydO9PeGDyYG/p8/f96f5zoYO3as/42D62m3xG3SpEmJ8btw4YJ/8Onevbu/j/jedNNNvq1H2bFjR+y1u3fvzjt+cZhIMj/Ik1CkhYRlQxpJK3HIJx5WJpTB9u3bU67Xwlrvjh07ukcffdRNnz7dtWzZ0seLfKUMKUvCYnkA7rRPriMO5Df5TrxC4u6F9u3buz179vh7EYd9+vTx+ZxUfnHCkT7T8oC+ZNy4cd7djocNG+bvoxzxB3dEP/E2ARummfPUkyeeeMKfE0IULiUz3U9nhbjav3+/P77xxhv9bz6YUDI/QrC8Ih7jLKxxNG3a1D344IP+Cd5ELSKQ74JhVZw2bZq/BhDWfBeUAZKOlYHTlhrkQyg62cDc4gitr1FRi7DA8klcu3bt6t3yBT9bt26dtlgzKPFAEXLs2DHvVp7yEvlBG1m4cKHfRzgw+FOnqW885IUMHTrUnT17Nn39zp07/S91BKhXiKk4Tp065cvUro2De01sIKgOHz7s9+OoW7euFzCEaeInKX644VerVq38cY8ePfwvgjS0CGJJg6Rr84lfHIiwW2+9NS2OzQ8LK0pYNuvWrfMiCtGVTzwylUkI3yFGEOMf1/PAEhcvhB+iEuFn/hJH8tiEfTYOHTqULjPEv9WLbPUrhLxYvXq138cP7guPzU/CsbAowzNnzvh9CNMMlAt1Pyq2hRCFRUmuSb106VKZDiof6PAQi1GwvIJN22fjo48+8us26QhDEAdmocRaYgKWD9oiFm+55ZZ0h50voegMraKZMOsrVh7ECgMd4hJrNEKZeBLn8oKfy5cvT6c5tFobFSkvUT4QkleuXHFvv/22mzdvnhs0aJAXb6GlDyuYiboZM2b4uty2bdvU2WQQHtQd7kmaxoVQNGLdSoIHRFi0aJH/NZLih3ChDSOy7rjjDv8ghDjB2kc4bGZtDK/lYQpxY0Im1/glgfUOgRn6YQ+mmSB8hJlR0Xhk4/Tp06m9a6GOUFdCuD5JbGfiyJEjvj8wylu/kqAMbckESw5atGiROnMt0bgIIQqTkhOpNi2NEOKJGwuRiS4EqGHnQriHjisqLA0GSSyUcdOXUfDnH/7hH/ygYtfT2WNZNIttCNZbxCIWxdD6ybVYb9ni7ouC6CQMtkxT/QYi+cMPP/R+c70JSOJPHuGOX5kI840lC1hfQncEcxIIBK6xcEX1g5WMdsOULuVnU6Qmimzr27dv2vKVDSxa3JM0jYvwQrCZ34SVBNa4uOnZpPixcT1poX4hRJNAlAJLFLAs2wNiPvFLgjjYNLltufQd5BXWY/qLyohHRSAe0X6S+Bw9ejR1VH4qUr+iMEOF0N26dav3iyUHJ06cSJ29FsQwApwHeSFE4VIyItWmlBFUZnFBdN1+++1+ap0OHzFk2DnuCQUg7kmiCiG1ZcsW/4JALhZVpuaY7rfrCQerIfEhXNZj2QtJWJ6IHwNbKNjYf//9993111+f05R4KHDD/UzgP2vibJkDYdJ5Mz3/n/7TfypjSeHlA14+Iy782gtS5BtlQDrfffdd7wYrVqzw056kl82uN8hr/d1nYUCZUwcRJQi7cE1feaHuxE39I3TMgocow5KfiTlz5ngRaTMP2eKHhfjOO+/07SmT8MFqiaWVqX6s+TatnUv8TODY1DdWaKyDgD+EzbrfXCAtZnFmzSniEAGdbz5VJuQNfRhWdosb+c3DaHlne4zKql/GDTfc4OuZ9VWUZ9hfYtWmfwLykXWslDtgfQ1nEIQQhUPJiNS4l6AY0JhSx5231b///e/HngvvQYTyElMoQhGXkydP9vt2H25JcI2FFb0ef2zqmwHM1p6aSI57YYqOl6UDuUyJEyZxD9OUDeIWxgXsxSniTt5xDGH82Sxf8CO83tzxE7+j1wNWJcQLeS5qht69e6ffiGaKFFGCFRRhhxU0nK6mLseBmMGCZW/3P/fcc+l7KHuWe5j4M3hAQ6RwzfPPP++tWpkgDJYl8JIPYSDgMsUPEYVIQaxmA8HE1HB4bS7xC9PNdazdxuprmLC2+CW9GQ882D355JP+OsIlrfifbz5VFNbDgr2hzxIJHnaxUhIH2jflGy1PiN6biXzqVy5QhvQ15h8P2DwkGKxJ5eUrzhE/zpE2IURh87kvf/nLv0/t1whM0+RjSeP6KFjnsORlEo75gHWTzpgXh0LhVlUQf9bdIbTDNCBcsVZiRX3llVeqJS7VRa55LCvrp+TbTmo7WP5YZoDYixNUhQTiDGupRFPVQF147LHH/MNSeZcTCCEqn1zGtZIQqaJ0kTD7FInU/GAtJxSD8JNIrVokUoUoTHIZ14puup9pG1E7UFmLfGE6nWl11m5GvwYghBCiuCg6S2qDBg2ueQlDlCa8mHLx4sXUUe1GllQhhBClRElaUhEtiBdZ2UoXylYCVQghhKjdFJ0lVYjaiNqJEEKIUqIkLalCCCGEEKL0kUgVQgghhBAFh0SqEEIIIYQoOCRShRBCCCFEwVEQL04JIYQQQojaRbYXp/R2vxBFgNqJEEKIUiKXcU3T/UIIIYQQouCQSBVCCCGEEAWHRKoQQgghhCg4JFKFEEIIIUTBIZEqhBBCCCEKDolUIYQQQghRcEikCiGEEEKIgqMov5PaoEED17hxY1evXr2Ui6hOLl++7M6dO+cuXryYchFVjb6TKoQoDzUxXmqMELlQkt9JpcE1b95cArUGIe8pA8pCCCFEYVJT46XGCFFZFJ1I5YlQFAYqi9rJ0qVL/VYIzJ8/v0biQpiEXeyMHz/ebdq0yf9WFVOmTCl3GQ0ePNjHDz/iqEj5V0YZ1lT9y5Wa7qOj4ceVJ/m3bdu2rPlIHV2/fr33o7xwL35URX2nLqxZs8b17Nkz5VI+KiOdpUTRiVRZUAsHlUXhQkdJh0nnb1suHajdlyQKYNSoUX6rCYhXZQwE4lMWLlzoBgwY4H8zUVP5vnbtWh+/2bNn++OKCMvKEKXFRk330dHwo+WJIGvSpImbPn36NX1KsYm1SZMmuSFDhrjt27enXAqfYmgTtfbFqblz57oJEyakjsrSv39/99JLL/nfTHA//iTB/YsXL854TTZouC+88ILr0qVLyiWZXOOdC/mEKwqTK1euuJdfftn16tXLbxcuXHBjx45NnRVCiOxMnTrVLVu2zI9l4diS5J4vrFs9efJk6kiIsujt/hjuv/9+t2vXLrd58+aUy6eilgbJRuPMBe4fM2aMmzx5csqleOAJa9++fRI1JcSePXtc06ZN/b5Nu2FhffPNN73VArdnn33WryUbPny4t5w9/PDD3pqB2OVam94Mn745NmutuUevwW/84zcubLsmzt3AP+JF/BYsWBA7ZcgWuuMHfuGO34QREmc55p7XXnvNnwv9TbIkck14P/u4GcTb/AjdQ8K0s2XL36R0hWFF89DSGvrF+dBaFZderovL9zCsMF1hWvi98cYbU2fKwj3ml8XN0scxZTBnzhwfvxkzZvjz7du39w9c0bIM4x2WBZjfcffWrVs3nSfR/IrL90xYmdi1cWVE3CxfDcLJ5n+Y12E88TPaPiubWbNmuRdffNF9/PHHKZdPSXLPhMWX+JMX48aNc23atLmmPds5rKyUfZiue+65J50XSfUuWpZJcH9YH6JlbnUnjBv+hm3G4HqLTy5xwc3qB1sYBiSlM6wL2dwtv9EvFhbnMrWJQqMkRKpZLE1ELlmyxFsCsQJiWQzd2NinYQwcONCf4xqzGJp1FTfDROnIkSN9o7zlllu8P1CnTp10GGYxtTAsPqHF1p4+2UKxG6bBnkzxb8SIEa5FixZu2rRp1/iVCfPPwuA+CzeM5yuvvJJ+CuY4tJ5u2bLFp8/SKooXOqU+ffp4oco+4nPDhg2+g6KeUM/g8ccf91aNlStX+qkr3rxkyq5Ro0b+Wqa0Qmzw4NzEiRNdu3btfGdLOOzbYNy9e3dvycXvuLBxC9379u17zRQ0YRMv/CAsmzKkoyU87qMTJp2ES6eL34TBOfwmDIsTMDV3+PBh17Vr15SLc3fccYc7duyYF2Xnz59Ppw3yfWgjL8gH7scfsDwLIX8s7QiOzp07+0EszF828iCaLqZPmUYlLO5j6hR3y1uuJ80M9qSVc1xz9uxZ77fBdXHpjcv3pHRF69YzzzzjevTo4c9Hocws38lroJ6B3fPOO+/436NHj/r6eOjQIV/GlmZIKn+DMk66t1OnTm7VqlX+3iNHjvgxAZLqdRLk3ejRo72/cWVkdY88p0+19HFdw4YN3erVq/1xHJnKFTK1zyj05fT/NmbZ2MdG3299fbZZwsqAekRdf++999L1yrBz5BfptnSRV61bt/Zp5XzLli19O4nWu2gexUEZ4x99HuUWV+b33XdfbP9w8ODBdB2KEo1LXF8GHTt2TNcP2tegQYPS8Q3TSVw4Jn7RdmflldQegfpBWI8++qjPS/KMdCW1iUKjJEQqls+tW7d6EUln9atf/co/LTzwwAPeIoo7laBfv37eOkhnQsPYuHGjP0eD3Lt3r/erQ4cO7sCBA34faLx0oG+99ZY/xjpKx8l1gGXqjTfecDNnzkwLOsImDIuPwTkqG+5cj7+4EQbXWxqwvhIOFtjly5e7EydO+Os5F4rnJOiwzD+edhGhxNf8ANJMPPlMCB01cA35Y3nBL8e9e/f2x6K4wEqENYJO6Pnnn/eDMZ0/HRSsW7fO/+7YscNPubVt29YfR+FzMrSVKHSot956a/qcCb5WrVq5nTt3ejcTH3TytIWksD/55BMvYrk3X+hobYDbvXu3b4eEO3ToUD/I2QARjZPBPeQVgwvbTTfd5N3otMk/sLTlA34hmGiHtk6NPDBrdgjxtzSQJ2fOnPH7iDP6DPwyEItXr151zZo1S7l8FhYDow02pJv0I4ARRSz/WLRokT/HNU899ZTfN3JNb6Z0RcsXP4lTHKdOnfKWMuoRcSTNWF05Jm08KOTy2bWk8s8FxgerH6SBvEZgJNXrOKg73ENfafFIqnukB3crO3t4szKLkq1cIal9JoFIId2MB9QjBHCxQF4h7IB2wjF5mW+fhpAj3fPmzfPlm6kvS+ofkuDeXPoyxvewfnCPEaYT/2hriFDqdrR+Z2qPQP2g7+ccdej48ePl6mdripKd7kf48SRi1lKeqijcTHAP7N+/3/8mQedqUOCIPQQdDZ5ONwlEIN8FIz5YRq0S0Vi4F8tlRbn++uu9yKUTMkGLCMVybNZY9g0EOY2ctBP3aNrpDMk3yxtRPIRrUkMrEdDJMcWGgOWXOhGKnlzhKd2EMBthUa/pDOloGUixdNDJ2wCSFDZTu3TEuJsVIF9IJ23JwMpmccOSSB2PDlwMaICQY7Aj32zwIB52v1ko8oWpcvOD/ajoBI5t2pk8YfYEED0MlrjZNDGDDYMrlheuNwsf8Q77Jjh9+rQfkMhfztsglkQ+6Y1L15e+9CVf7tnCgVBIYOmh/0OocsxDDQI9X6Llnw/kHXkESfU6DutP7QHASKp7CAizzNnDWyYylWt54F7yOpcxq5ChjoXCLtc+jbLFGhoKf0gq87B/MAu4uSWRS1+GMLYlAdQP2k8SVjdff/11b8Di+ugUfVx7RG9EofyLiZIQqQgpE6MIU9YyAQ0QSyTWQ7bQYpoEgownpUyUZzA36JAsPlg7EbiVCeuD6OijccRybOGymYBFlNJJMfhhsQ3X4RqXLl3Kmm+isOGpnHK2tVFYn+iEw82sQPnAIGHTkLbZFJQNxjZ9bsIlKWzOMwVlU22ZpldzxQYb2+Km3giX+BHPUDQwuDBI2b34lS8MLPagYBtpDEUcbY9BB0sI50k/bdFgqhN3xOoTTzzh3RhcmaIj75kp+da3vuUfBKLtnvib2IsTxyH5pDcpXR988ME14SSJKct37sXaw8Bvyw3ArI81QaZ6HYX6zPVWNkZS3bOHtYceesjnVbZ0ZitX8Sm59mnUtZ///Of+Ic/6Q0gqc+opdZP+IdqXJcH5TH0Z4vKxxx7zywIJh3BDwR2F8qfN4S9p4h5ENhZ8HvCS2mMp/AFM0YtUswCyVhTxZULUnhJtWj5KOOVixD1Z4sb0mk15MyCwJjVcEgC4169fP6MVlqchRHTUKsk0EeKY5QhRaBCcS3r5IA6etgiHvADSyvfqiGMURClp/trXvpZe/xVCXmRqPKI4QNRQ1sOGDfP1gSm/iopAs5ZiuY+DwZdBOJwewy1b2HTE+FvRKSnCZJYiHIiS4FoGEwSBiQaEgFkdEF2cj4NrzDLG4MPgB6SD9kueZxKHWIBo42Ytw1oT194zTf2zIWLDdW2km/ZLeqwsbE0t1zz99NN+38g1vZnSZeHY9CvhZJpOJk1f/epXvRULf60cGHRDK1d1wtKuTPU6DixnpNuMDpnqHukkn++++25fZpnSybWZyrWyCMc+xgmmj4sJ8iKfPu3tt9/2Io8yJj9z6cvox9gyrR+OQvnF9WU2m4PlH5hxov4Y7LNkBKxPiVrc6S/oN+jPc+lncoH6m2T5rSmKXqTSuCikRx55xFtS2Wwx+IoVK/w6E3MPF4IjMm+//fYy15t7VNhimUWAci3h8IRsnRFTCuYe/SJAFMLBKmnT7li36BBIA+ta2Q/dAf+4x9JnwjMTWCN4QqOj4cUp4ooANT/sJTKDpy3Sh1iOwnRBVJCL4sQsONQt6gCdH3WZLZxKxqLHdBFucdNFITY4mz/hm6zW8SP8bHoMt7iwH3zwwfR0NxvEvQRiaWA6L9uAhNWKgSicwkuaubD4heKIdojQ4D7W9HIuDgYtBkiue/LJJ8tMBZIG8sCmIdmi8SY82rnFk6VJ3APh9DsDFdP8iFqbJsRfRAzWFcKiDWOV5RwzNc8995z3n42XmCw9XBN9KztTeqP5npSuaPlG8yOKCS1EA3At4dKHxcGawW7dupXrbeR87s1Ur+Og3VA21APqMenIVPcQsVzLL9D2GGfiwshUrpUJ/Twzkowx7777bsr10y/bMHbw4MSvjaNJ7pUF7ZexnXRnE07ResdmfVoStBnGbMqIuputL6Nehv1DEoSZrS8jbbx8ZWXKWG1tHtjn3RLOcY2tdyae5i+Cmpli4pNLPxNHRdpTdVF0/90fHTQZcGm0VFA6+uhxviBWaXDhms6KQMOl8VeGX1UFQpansmgc6awQ7Jk+oVUK0wnFQL7tRAhRuCB+sDZjzUbgIhAQHQgljiuLbA+Z1UGp9Fs8ZGDNjFtCIMpHLuNa0VtSo5ZGft9///1yCVTAqonA5enCrJn5En5mCgpVoCJCiSNTPNE4YmnFqhJ9GUAIIUTFwGKJtdUEKdO9LAGoTIEqKg8eKsKXP0X1UXSWVNZ2sH5J1DwsQNfi/epBllQhih+mYFlKw0s+SS9iVSY1PV4W+xjB1D3T7RhyWA4TfelSVIxcxrWiE6kNGjTwa7JEzcNLG3xCRlQ9EqlCiHyp6fFSY4TIRC7jWtFN91Phqfg8oYmagbxX5yOEEIVNTY2XGiNEZVF0llQhaiNqJ0IIIUqJkrSkCiGEEEKI0kciVQghhBBCFBwSqUIIIYQQouCQSBVCCCGEEAVHQbw4JYQQQgghahfZXpzS2/1CFAFqJ0IIIUqJXMY1TfcLIYQQQoiCQyJVCCGEEEIUHBKpQgghhBCi4JBIFUIIIYQQBYdEqhBCCCGEKDgkUoUQQgghRMEhkSqEEEIIIQqOovxOaoMGDVzjxo1dvXr1Ui5C5M7ly5fduXPn3MWLF1MuhY++kyqEEKKUKMnvpCJQmzdvLoEqyg11hzpEXRJCCCFEYVJ0IhULqhCVQW2uS+PHj3fr1693gwcPTrlUjKVLl7r58+enjvKDe9kM9rdt21bGLQ7iThpIi8iNaF5XJpR/VfldmVBvNm3a5KZMmVLmmDq3cOHCMudypWfPnu61116LrYvFki9CFCJFJ1JlQRWVRW2oS+EAzMZ+ZQnTymLUqFF+Awb5Jk2auOnTp6fdDITAmjVr8hYQpU4+DxxhXlcUyoHyoFyKibVr17oBAwa42bNn++OhQ4e648ePu169evm8DM8JIWoWvTgVYe7cuW7ChAmpo+z079/fLV682N9XSEydOtVvmejSpYt74YUXMg5a+LFkyZIKDWz55Gku8c6VfMuy1EBEzJgxw23YsMEPwGyU5T333JO6ojBhrfDJkydTR0JUPadPn07tCSEKCYnUCrJ582Y3ZswYN3ny5JRL/iAAEYuIRhO9FRFX+MeaS6afDITfsmXL/JaPoJ41a5YbPXp0UU5XLVq0yHXu3LnSLEfFBFY16tLLL79cxirEdGZYVxGsZmUNyxiL0ptvvhlrfUX8ZrLM2nl+OWeWXPyLmw4lXKZEuX7cuHGuTZs2bsGCBf7YwJ9nn33W1+vhw4d7Cx6L7qFjx47puIaWvVzCBsJ/9dVX09dyHN4b5gvxxI0tTLtN6bLZ+TD+UUJ/LM5hmGzRcEP/LT2WZ1ifeSDhOrve/Anjyf12DfvUD8KPXhfGJS7v8INyoDyiZWVxZAvdM9WpkPB+wuE6LMX0W3HlDGF6ud8w63ucf8SHa+0Bjjj98Ic/LLOEJFM+hGHm2l9bHnBveIwflifkWTR9xNPuEaI2UTIiNRRhZokzwYdbaA185plnvPiy6+lgOMc1DJADBw707i+99FIZ4WjXx/kfWv/wjzDsXCgKs4nF+++/323dutWHDfgVvR4/on5a+MS3X79+bsuWLW7v3r3eDT9at27tZs6c6bf69euX6VS5B//DPMJ/C9fyAcI088uxEd6TLU9zgTRZGNzDvfgRjaelHTi2tJH+ffv2ud69e/vj2kT37t3d1atX3Y4dO1Iu19KwYUNfLxigESstW7b0gyYD5YgRI3zecw5L7MMPP+wHTQbQQYMG+el4zlHPQrif8/i3bt06f59Zcvv27etFchKIae5777333MSJE8uIa6ZoH3/8cW9hXblypRsyZIh/K5QlG4jURx991MeJNN13330+rmHYpIU0kbY4br75Zt9m8YN8ePLJJ8sck278rFu3ro8bfjJFzAOq0b59e7dnzx5/jnSQD6GoMRAb7dq1S/vz9ttv+zQQX+orbmx2rRH6v2vXLjds2DCfx4R19uxZH9dJkyZljWdIp06d3KpVq8pcF827uHIjHMqB8gjLKowjwqtPnz7ev0x1KsTSyzVshANhOeN+4cIF98QTT/hzlE2Yn4A/+I1wP3z4sHcnf8inEPoRE5pM8+/evTt15lOBm1SHomFeuXLFtWjRInVnPNzHAz91mXQl5QlxrFOnjuvRo0f6Pur16tWr/bEQtYmSEKmhCBs5cqQXoGCCDzcsnnfddZcXO3QAzZo189dv3LjRdejQwT+p0oEwQOLGPfiL0DFrKW4vvviiDwvhZO50ylHatm3rOyOuRxRyPR0ilgeLZ9T6evfdd/sOygQq9xA3ux6IE0/c5ifpwYqCG2A5BAY7Az8Y1EgLG/u4AXnBW+6WRyboiJul99KlS94NEAeki3PkLXkMJhRxZyMNmfI0G1amc+bM8fF64IEHfLzxg8ERIU7a33rrLZ+n7JMfEAon9kmjidraBAP59u3bU0fXwnkGSEDMcky7YI0e9dCEyc6dO/0v+dy1a1c/mFIH4KmnnkrvN2rUyJc357mXsPGzVatW/nxVwOfEEFmERTwQWoSHUAVEHJA+lhHQLuOgvXC/+RE9xk/CwGppeRpt94cOHUqLNdLPfXfccYc/NhA+N910UzrOQFszqzDWf4M2w7Um5EL/EVPUa8okSrZ4htCmrJy5DjEE5S23pDhmqlMhR48e9XGIitewnIG8od9D1CGE6YvC9DZt2tSLPMSj5SllSX3NlaQ6RB8ZDZMwTpw44ffj4KGBuFKvLH+S8oSHL9xpi8ADJ+VB/IWobZSESA1FmIFgQcjt37/fHyNWEFs33nijP7br6QzoSBE5mTAr4SOPPOKuv/76lGsyDFCItDNnzniLFoMNHRRhYQEwQWXQqd5+++1lpuixcmCFnDZtmg+bfUC08Z1P/ESU4j9uQMeNdSOTECTN3AP8IvQgW14QZ6xKPP0TH6yjwPUMNuZPRUEIdevWzQtk0oH/CFazxhI+8QTylDRQruQXaQjTzj7nyZfaRtxgnwSDLQOhgUXMLExYo8g/BmcG21OnTqWuKsttt93m670NwsBDBhYn/KmO6cpwbSF1kqlowuaX9mMDf3nBgmb5wnR3JuLWORIn8vDIkSMpl88g/030ANdwbVTIAeesDceRTzwNyhVRB5VRbtE4xtWp6EMDdQfLJ+UVnfIOifpNGsP0UvfpT0lPmKf5EleH+CoI/ia1gzis7w4fQiApTxDa9IPAb6YHDSFKGa1JzQGsegheLJoIp48//jh1Jj8QTPj1yiuvuO9+97tlpr4Z0Oj0sBiGYIU066RZKIGnbcT5Lbfckn4CN7IJMs6byMsX0k4eWHwqshY3CSwSxM8eKIABafny5elwzSLLhjBFoCJkzaIcwr1cU5ugTpCHNmWYLwyaTEHaxpTv66+/7kVTktDDcoY4CEUNAgHrO9OiiB7EU3WBVS9MA1sooPOFuGNBsyleLPqZ4METy2AUyiXOoht9qOAaxFC+L5HlG884qqLc4uqUWRFDmArnPGLVpvSjWN58+OGH/pclD6HfxP2DDz7I60Etjrg69KMf/eiadoCYzfTdZfzhISSanqQ8MevtQw895NMQ7eOFqC2UhEg9cOCAt7yFFkAsmIB4AaaHEZrmngRiJm4QxgqLIMK/XCypmcDqiVCFUIhheUVAIsCAuPDUHrW6AhZiOkbux5pocA+DYJgXYf6wsY9bFERvJitsNE8Nrue+pLWfSXmaBH7ReTN1THzxH6FpSxSikBZb5mAWZYP7yY9jx46lXGoHTA0ePHjQL0cJ10Wyz6xAJhCb5Gd0PSXCBeHAWkvWycHTTz+d3kcszJs3z98btb5xb3mnkMsDg7qtJa0siHto7TRLl4FwsjwjXMKPigvKhfbAelITT5QHboiRsWPHejdg5oB6a+HlSrZ45kNllVtSncqETf2zFII1qTZzQ76Rf+TNj3/8Y/8b5qdB3od5Sj2lvuZKUh0iT2gHtt4WmLonrExgneYa+nnIlCeEgeGCJWCERb0hLKzLlVmnhSh0SkKkYl1ERNq0OOsjETa8YENHghu/HCcJMAPBwzQR95ilE0GIVQQ3OhWbxmOdI34yCLCFL/TEYdfjD8sGWHIQFVUrVqzwcSUNdGbvvPOOv5Z7Qv+5D+HGABKmyQQr8TTC/GF7//330xZZBJxN32OJDJcbRCGcN954w4tmrmeztajcx0OAuZvQhrg8zQbXEU9bGkG+3HrrrWn/Q6Flyyi4Pgr5QD5F87k2gEWKwY31iYh+NgZz6lEmsOSwrjS8zwZW/CS/mZrEnQee0NJHePiPO2sIwzerwV6EKQ8M3KwDZDoXf20dZxwWD4SJhZ9p+jgXmKpFZITpCWEGgPzlHOESPvGIQhum3do0Mu0Occ+LWtRX859+Jpf8orwQuZQJDwfZ4pkNXlDKpdzM2kc6sgmnTHUqhPjbeR6GyBdmjViTev78ee9OeOSfxYnfMD/ZiA95H+Yp+ZPPLFimOhQNE8tqpjWpQP0lPQhf/GGNa6Y8QcRyLb9C1FaK7r/7Mw1MtQmEHhYCxFtUgCEQEQm2prMiMKBihWaQqahfVQUilhe4GJzDOJJHWClYjxw3IEI+da8mybediOoFccWDbKaHVFE+EImPPfaYX+5DP1RboO/i5S2svwhcIUqNXMY1rUktQrAiYhHFQhlnITQrZHR9a64g+njrG4slVitEXiEKVEQoaUWU89JWNI6IeKx+SQJVCCEKFZY3YG2VQBW1maKzpLI2Sn+NKioDphDjXmwpRGRJLWxkSa06apsllaUKGAd42Ur1SZQyuYxrRSdSeYMy7pMsQuQLayn57mExIJEqhBCilMhlXCu66X77X2+sYEKUB+pOMQlUIYQQojZSdJZUIWojaidCCCFKiZK0pAohhBBCiNJHIlUIIYQQQhQcEqlCCCGEEKLgkEgVQgghhBAFR0G8OCWEEEIIIWoX2V6c0tv9QhQBaidCCCFKiVzGNU33CyGEEEKIgkMiVQghhBBCFBwSqUIIIYQQouCQSBVCCCGEEAWHRKoQQgghhCg4JFKFEEIIIUTBIZEqhBBCCCEKjqL8TmqDBg1c48aNXb169VIuQhQOly9fdufOnXMXL15MuVQcfSdVCCFEKVGS30lFoDZv3lwCVRQs1E3qKHVVCCGEEOWj6EQqFlQhioFCrqvjx49369evd4MHD065VIylS5e6+fPnp47yg3vZDPa3bdtWxi0O4k4aSIvIjWheVyaUf1X5XZlQbzZt2uSmTJlS5pg6t3DhwjLncqVnz57utddeq5S6WNltU4hipuhEqiyoolgohLoaDsBs7Bfa4Ddq1Ci/AQN0kyZN3PTp09NuBkJgzZo1eQuIUicfURPmdUWhHCgPyqWYWLt2rRswYICbPXu2Px46dKg7fvy469Wrl8/L8JwQombRi1MR5s6d6yZMmJA6yk7//v3d4sWL/X3VRZcuXdxLL73kli1bVmnhMnC98MIL3u8kOMc1mQa5qVOnuiVLllRoIMy3DPLByou8I64Vgfsr6kdVgoiYMWOG27Bhgx+A2Sibe+65J3VFYcJa3pMnT6aOhKh6Tp8+ndoTQhQSRffiFNdXJQikAwcOeBFYHSD8eHrfsmVLeqoMgdevXz8/9bR3717vFgdCrkOHDm7y5Mkpl/KRFIfhw4e7L3zhC+7jjz92r7zyijtz5sw111UF1VEGJi5nzZrlf8tLtrhW1stO+bYTrGqPPfaYW758ua9HUSjHESNG+Pp15513erdDhw6lHy44P2bMGFenTh136dIl98wzz3gLFCB+qRtg57iWgX7SpEnp8ytXrnQ7d+50Tz75pKtfv767evWqf0CIxoe6xL1Hjx5N+wvcbxYt0mP+ACKW+HA9afjGN77h44o7Vtjt27eXuScpbCD8K1euuJtvvtlfSz5wrd0b5gtT2oh9CPMF96ZNm3r39u3b+98w/lFCfyzOrGMO0xgNN/Tf0tOsWbMyeYa1nDJIiqflNdewf/78eXfTTTf5sMPrsuVd6D+Q1latWmXMg0x1KoR42f2kZ/Xq1b4uJ5UzhPEJ8w0rLw9qpA9C/2gbAwcOTIdFnNatW+fuuuuudLvJlA9hmLt37/Zp5/4wn6ydPffcc+m0ch8Qj7C8rezCe+Dhhx928+bNS99P/uzZs8fna651XIhCpCRfnEoC0YF1jM0ESGg1C617dI6IE7sescc5rmnTpo3vuHBHeCDgQn/Y4vwPLWr4Rxh2LrR2hvHEnY6XDhexabCPG5jFNOpPHKQhtIZyvVkk+U3y54EHHvDh0fkB6br33nv9ADNy5Eh38OBBd//99/tzgP/4E+Ypfpr/lm/Ar6UhamGNllmmMkgiTCPYcVKZJcE9li+EF1qMM+XdW2+95Tp37pwxjjVB9+7d/aC1Y8eOlMu1NGzY0LVu3doPtC+//LJr2bKlHyAZ+BgkyT/OYYlloGTAR4AOGjTICwTO8cASwv2cxz8GbO4zS27fvn0zDqAMutz33nvvuYkTJ5YReAzQjz/+uK+n1MshQ4b4zo0lFR07dnSPPvqojxNpuu+++3xcw7BJC2kibXEgUGmz+EE+MPCHx6QbP+vWrevjhp9MESO6DMQO4oFzpIN8ID+iIFLatWuX9uftt9/2aSC++/bt825sdq0R+r9r1y43bNgwn8eEdfbsWR9XRE62eIZ06tTJrVq1qsx10byLKzfCoRwoj7Cswjgiuvr06eP9y1SnQiy9XMNGOBCWM+4XLlxwTzzxhD9H2YT5CfiD3wjUw4cPe3fyh3wKoY0TTzam+RGbRjQfwjoUDZOHnBYtWqTu/AzaH+2Q9gj4yUMB4eBmflOG9CNx9SWJTPETolQoCZGKiGCwnTlzphdVZh1DWG3dutW7bd682T8hIyZ4EscCwfUbN270ohCBNnr0aD9A4sY9+IuI5F46b9xefPFFHxYiyNzplKO0bdvWD6xcz1Mu19Mh8kRv8TQLKJY43IkbG/u4ETZx4FruId4mnPKBsEmjhQv4C2F4BgMXn1Ay0co6RtLwta99zceBt9bxh/T37t3bX0NaLH+wSBgIYAZUzjGoYSEmzLgyy1QGSRBvE/ikk3ju378/sczyJVPeAXFmECJdhQYDuVma4uA8AxswmHJMu2CNHoO5CROsoUA96dq1qx8Uzarz1FNPpfcbNWrky4/z3EvY+ImFrargc1+ILMIiHggtwkOoAiIOSB/LCGiXcSAOud/8iB7jJ2GMGzcunafRdo8Fz8Qa6ee+O+64wx8bJlIszkDbsRmiRYsW+V+gDXAt90DoPyKHtkiZRMkWzxDappUz1yHyobzllhTHTHUqBGs6cbA0G2E5A3nD2mVEGkKYfj5ML1bNHj16ePFoeUpZUl9zJakO0edFwySMEydO+P0QziOSLS+JE+AX+WR5xTEzVfmQbx0XohgpCZGKiKCzDcVMKFgAiw/i6cYbb/THdj0dJx0pwikTZil85JFH3PXXX59yTYYBCgFDx4OIYbBh4CMsLAChYMIdeJJmA3Mza+O0adPSU2n5gujEOokf+MW+QX4QPwsvDtJgwpNrsR5CtrzDHXFoVlGe8rke4sqsPFC+9hBAOoknAhXyLbM4MuWdQT4g7gqNuME+CQZThImBRcwsTFijEAQMzljoTp06lbqqLLfddpuv9zbwwpw5c7zFCX9Cq2BVEa4tRAAtWLDAh80vZVfRcsKCZvkSTrPHEbfOkTiRh0eOHEm5fAb5b6IHuIZr44Qo52iLSeQTT4NyRdRBZZRbNI5xdSoqqKg7iDrKK9NLWVG/SWOYXur+7bff7tMT5mm+xNUhvtqBv0ntIApi3R426AsRk8SJY9JofsdZYrNRFXVciEJCL07lAJYzhBDWNKxyrNEsD2YZZX3nd7/73fRUNu425c/GPm5YTW+55RYfJmHHDXq5gnUSS6BthG2QNhPvcXCOa8oDAwnruyzcbJbRfEGQIkwRk3TOZhGurDKDTHln5DpgVRdYqnggMMtNvjDoMYVoG1O+r7/+uhdNSYMggzHiIBQ1DMZMzTMtiuhBPFUXWPXCNLCFAjpfiDsWNJviZWYgEzxUYhmMQrnEWbuiDxVcgxiiP8iHfOMZR1WUW1ydMstqCFP8nEes2pR+FMubDz/80P8yXR76Tdw/+OCDvB7U4oirQz/60Y+uaQeIxaTvIiNKAcsn8aFtEieEOtZY/CSf4yyx2ajsOi5EoVESIhVh0q1btzIWPZs6QbwA07GIlmxTKklWMYQQ4gr/ymuVMxBWCFUwcUgasDqyhVPvhEucsbDecMMNKdd4jh075gdA/ESkmdWPNPH0HzfdHVp6DayTXG9LC1irRTx++ctf+mMjFNRx4I7fXBclrsyMfC2TWHa5noEjXCOZT5mFVmGWKJjVOlPeGQw8XFdIMLXJWmKWPITr3NiPrquNgtiMWx+HcEE4sNbS1r09/fTT6X3EAi94cG/U+sa9VT31H4IQsLWklQVxD62dLH0IQThZnhEu4du0tkG5UFdYT2riifLAjXo0duxY7wZY3WjTFl6uZItnPlRWuSXVqUzY1D9LIViTSn4A+Ub+kTc//vGP/W+YnwZ5H+Yp9ZT6mitJdYg8oR3YeltgOQNhxcH1xJEHRvpb6gCilv7GHm45F2cosAcUW9NKXLBIQ6Y6zixedcxcCFHVlIRIxbKFILEpWabIESe8hENHghu/HCcJKgPxxDQR95ilE9GGaMGNjtYsmog4/GQQYIu+GBTFrscfpqCZ7rap6XC63fb5pSMjXayntXARTKwlpNNGiOIfotSsiviNALQnczqsd955x7tzbRhP8sOsuAb+YPVgep7rEc62rov4hO58wDoTK1ascLfeequ/ns0EUlyZGXFlkAnyibggkqx88y2zMK8ZQOz6THkHlAX3heVXKGCRYkBkfSLlycZgThoygXWLdaXhfeQD4CdpxQqEO/UstPQRHv7jzhpCm85kA3sRpjww2GN5YjoXfzN96cPigTCx8Cv6TU/aAEIkTE8I7Y385RzhEj7xiEL9QfjZNC11F3HPi1rUVfOfOphLflFeiFzKBGGSLZ7Z4AWlXMrN1kKSjmwPA5nqVAjxt/M8DJEvvCDHmlS+RIA74ZF/Fid+w/xkIz7kfZin5E8+MyqZ6lA0TB6QM1lCEelM5/OSHOA3/azlB30q/kUJ6zzX0WdhPYWqqONCFBr6BJXwQguLGx8Ejxs48oEBOJfPZ5UKiG5EddwSAMinbmci33YiqhfEFQ9F4QOMqBwQYfbJqLjlAUKI4iSXcU1rUoV/okeg2pv3+WKWXSyNPPEz5V4bBCrWXyxYSQJVCCGEEOWn6CyprI3SX6OKYoApyrgXZ8qDLKmFjSypVYcsqUKUJrmMa0UnUnmDkjWDQhQ6rNXku4WVgUSqEEKIUiKXca3opvvtf72xUglRiFA3K1OgCiGEELWRorOkClEbUTsRQghRSpSkJVUIIYQQQpQ+EqlCCCGEEKLgkEgVQgghhBAFh0SqEEIIIYQoOArixSkhhBBCCFG7yPbilN7uF6IIUDsRQghRSuQyrmm6XwghhBBCFBwSqUIIIYQQouCQSBVCCCGEEAWHRKoQQgghhCg4JFKFEEIIIUTBIZEqhBBCCCEKDolUIYQQQghRcBTld1IbNGjgGjdu7OrVq5dyEcXI5cuX3blz59zFixdTLiIJfSdVCCFEKVGS30lFoDZv3lwCtQSgDClLylQIIYQQIqToRCoWVFFaqExFeZk/f75bunRp6qh8jB8/3q1fv94NHjw45VLzkCbSVtMQj4rmb1VDPq1Zs8b17Nkz5VL5EEZ5y4P6tWnTJv8bhTpH3Ys7l43KqLcVCV+I6qDoRKosqKWHyrTyYcBm4N62bVt6q+qBvDqYMmVKSaSjWBg1apTfCplJkya5IUOGuO3bt6dcrsXaA/Wnulm4cKEbMGCA/61IPCpDlApRbOjFqSpm7ty5bsKECamjeBgEXnjhBdelS5eUS1lwf+mll/yWdE02soURJZd450L//v19vPkV1cuVK1fcyy+/7Hr16uW3CxcuuLFjx6bOCiGEEIWNRGoVYiIPkWYg/pYtW+a3qVOnplwzs3fvXu8XG/vFxObNm90bb7zhvv3tb5dbYIvKYc+ePa5p06Z+H2sMU5BYWN988830dJ9Za1599dUy55jqjF4L5h6ei7MW4f7aa6/5c0lhJ7kbhDV8+HC/jnnBggVl/GdK2uIRDRe/cMfvbFYoi7tZa+PixBa1aBG3uGnxbHkRxtvCjMI14f3sh2GFfiRNSVv8wmuT8i+MB+7mJ/vUC/IjLq5cZ36EeZ1UrmGYYbxD92iZEefoOUsbhGGxcQ63Z5991tcb6k80feG1RlhvuL5u3bqpM58RliMQtzC+Vk5WX374wx9eEw9eHIGOHTuWCS+at/g1btw416RJEzdjxowycb3nnnvSabB8gDAvwnzPBPeHaYjLH9zC8LlWSwZEVVESIhWx98wzz7jFixd78YcQBLNA4rZkyRJvTcSih0XxlVde8efY5z7c2cwPux6iVsXwmLDjRCd+devWza1YsSLl8um1MHLkSPfiiy+6W265pcxUGo0cf8xiGsYn6j/hm7ulF8J7LF2cHzFihGvRooWbNm2aPxemJxvcHxcn8580kJ/sQ9RqS6d29epV169fP38sqh8GvT59+nihyv7DDz/sNmzY4C2slCP1wwamhg0buvPnz/tzu3bt8oMj2PGwYcO8HwycnTt3dtOnTy/jD4Pw4cOHXdeuXf19cMcdd7hjx475/biwcQvd+/bt66dHQ5jWXblypTt58qSbOHGimz17tndv3769Txf3MZiSTuJHevCbMDiH34QRFQAhTzzxhLc4M30McXH9whe+4Otz9+7d/TX4d9NNN7mNGzf64xCmoJPygnyyfCY9kK+l28SC+dGuXTtfLnGE+YSFfdCgQb7PIZ9yjcfNN9/s+9ro9Dp5gJDjfvw5fvy4GzNmjHePK9cw3myULeBO/TN/wjIjXcTZ6tuWLVv8PSGUiYVFGqmfbdu2dY8//rivN9Qfi3tS3kXrzapVq1ynTp38tSE7duzwvz169PC/N954o5+9IDygzMlvY/fu3dfEgzebWe6ESH300Ud92kj/fffdl7rrU6jrpOfs2bP+Gssvrm3dunU6vS1btvRlGs13q7vWxuOwvCeOa9euTcwf0sQ+YQB5Tryi7VWIyqBkLKk0ToQS4q9+/fpeMD3wwAN+UEUU0ikgktq0aeNuuOEG98tf/tLf9+GHH7qPPvrIDzL333+/27p1q78eC+Bdd93lhdaBAwdchw4d/PX4i//79+/3YoxGzfUzZ870g46JTjq1S5cueX8Afzj/1ltv+WPc33nnnbS/WLj27dvn/eI+4so1dPS4hQMgceA+wuQcIDoJY/To0ek0cC9+TJ482S1fvtydOHEifU9o3c2ECWP8x4pLx0oHhh+EQ54hQvmUlHXkxI20hFZf0s2AYcJVVD2IBgQmwu3555/3gy2DnQ2A69at878MtnwGzAZXRNrq1av9PgMrA1B4XKdOHde7d28vBhkEqQ/AIMW1DFpcR/gMZGy0L9ySwv7kk098uK1atfLu+XDo0KG0YLX40daGDh1aZvDcuXOn/+VcHN/5znd8e54zZ44/zhRXhKfF1UQK5xEIZhEz61VSXpBv9gBgYjYfEBy33nprum8wP5LyMMwn8gQhiWDOJx60ayvvEO7DD37BxBnHceV69OhRn9cmdMDSQz01f8h7hB95jOgL69tTTz11TVxIn6WR8jhz5ozfj5Ip76L1hl/GkSjcQ9zIQ9KBWLQ8tXRZncsEn+KzNJMe/Mi1HZC3CFAgvRw3a9YsaxuPghClf543b56PR6b8ibajqBgXojIpGZF68OBBL8jYEFR0TnQaAwcO9FY/niIZvODjjz/21yMG/+mf/sm7YSEw8Qk8pXOep2PcTPiG4hMxxnQN/mOhtKlUoKNA3Gbi1KlTqT3nTp8+nbYM0EFyfxLEAbFtVlH2gU4GC0+chaE8kHdMLyFygfTzMEBeEi7nDdJKnBGh3GP5aGA5Iv/JT1E9hGtSjxw5Uqa8GGCYMkdM8UsdylTn4sD/sA4D9ZiBjEEREBcMmFxrg35S2IhDLDS4mxUnX0gnbcDAeoh/bEyTUjfjBmoE01e+8pUyAgmS4orIRGwiRswyyn2kEWsheW5Ww0x5QTotftyTL1jh7EHE/Aj7oUxQVkZF4wFY2cwPprONuHJFSCJ6yNNwepuyowwN8pT8uv32273Qj9a3KPiDf4SF38weJZEp78K8yQTijHsoW+JJ39uoUSN/THyxmuZLrmFHIa8QqUaubZx8oA6HDwCQlD9cQzg8jCJmaTu5iHEhykNJr0mlw8OCiNWPDfH63nvvpc7mDoIUYYo4pJGH4pNOyvzHiolV0cg26Gc7nwnSYeGy5WoZzQfCQJyH1k8EPtZqC9cELKIUAcAggcWWPItCHiZZNkTVgrWF8sGyB1jVGHTCzSxQucIgHK3DDGJYyRgwEW4MflFLS1LY3IOlPpxarCg2uNoWt4wAGHR5YKUNM/AaSXHFD+7hwc0so0kk5QWCjfwyf4lrvhAHm/62LVxClAkrq8qIB2WFZd2m6Zm5MpLKlSlrrkWssswCeJANHyLoT6hnzNTE1bcQruVBhBke/CU8+qIkMuUd+RESPTYQZ4g0puvffvttL7B5EOfYHlxqilzbOJbcn//85+nlH0am/MHCShoRqlwXtWgLUVmUrEhlqhmRatPp2UB8gU1ZM92OQDNRxXQ1HSQdpVkqearHWhs3hc05RIFBfHiqZpoUGNxYkxq1tuIXT8CZrLBYWvm2KH6EMBVHJx+39rM8lkzi8P7776fXp1leWB6FIErJ76997Wt+GUMUBnLOF9uLX6UCgwhlxHpS6g8W8YqIQNbSIS4Y2EzUMcBR582qgnBDlNBmzI3fbGEzsDPw5TrlmQThM7sQDryZ+OlPf+rb0JNPPunTlC2uiJI777zTxzVO+IbE5QXCx6xmCCzOx8E1iFsgXuQ5mEWLZT25gPizvCBNpI245BqPTFBWxMVEmcU3JKlcbeqf/pG6aWueAcszefb6669fU9+efvrpMg8U9Jv0cWZtxZqZ1N9lyjvKiryxvOI3aZqcOGNBJb2Ei7/0kxxnenCpanJpZyHUZSyp5AfpzVa3mB2gXMhjWxLAffpElqhsStqSyktLrKtZtuzaF4yi0MHwshTWAK7ll2MTVQxeCFI6JHPDeol10KbdsVaZcAyXCBi8CYob1z7yyCPeYmGWVwYK/GGj4wstslE4hxDED/yyl7yIF2/SE2Y0PmYNtntyfXFq1qxZ/tcstaH/bOHLXAgX0kdeReFhQX/rWbPY+jTKjzrDYEIdZIt7ozgbWMIoa6xX+IEV8rnnnvMDHNg0N23G3PiNC/vBBx9MT9Oygb0cEmJpYPoy2wCMcGTgDacsM7UrIEzWBOI3wiRTPiEEEEEM8NmIywvaJyIaf1kzzLk4WA+M4OA6BLT5BUylI/Asfpne4saqiADkOtJE2ohLrvHIxKJFi8rEwyCv4so1XF6A8LS1kPRjiCObpqYfxprHuWh948XUcDqdtNDPWXmzLAm/gPuxsIZv9yflXbTekGfR5UsG/mIAIM+sXKgPCLhw2YIRjYe93Z8LxAsRH327P46kdpapjWNltRclqf+Z6hbp4MGGdIb1UYjKpuj+uz+fRl3TIOCwLNmUeEUwMWiisRAhjoj96NIDBh6su3SySZZUCdjM5NtORNWDAOANagSWCc9Cxab0bbpWiIpiQjnuYVKIXMhlXCtpS2pNY4IyV6tlFO4ziyVWXCyxhYjFE0EeFahY7fhKwk9+8hNN9YuSgrfAmYIudIEqRGXDAxrLQuyrH0JUFUVnSWU9E28ditKBhfusSxPJyJJaODDlyVo9pl5tKrrQkSVVVBYsmeGrGbwcl+/LlkKE5DKuFZ1IbdCggV8gL0oH1pXxDT+RjESqEEKIUiKXca3opvsRM4garG+iuKEMJVCFEEIIEUfRWVKFqI2onQghhCglStKSKoQQQgghSh+JVCGEEEIIUXBIpAohhBBCiIJDIlUIIYQQQhQcBfHilBBCCCGEqF1ke3FKb/cLUQSonQghhCglchnXNN0vhBBCCCEKDolUIYQQQghRcEikCiGEEEKIgkMiVQghhBBCFBwSqUIIIYQQouCQSBVCCCGEEAWHRKoQQgghhCg4ivI7qQ0aNHCNGzd29erVS7kUHpcvX3bnzp1zFy9eTLkIUX70nVQhhBClREl+JxWB2rx584IWqED8iCfxFUIIIYQQ+VF0IhULajFRbPEVopCYP3++W7p0aeqocBk8eLBbv369Gz9+fMqleiDcTZs2uW3btrkpU6akXD+l0PKupvIoiuVZNL/ygXytaN4WSn4IUcgUnUgtdAtqlGKLrygNevbs6dasWePFi20c454Ju68iA3hFINxc4ik+ZejQoe748eOuV69ebvbs2SlXkYm1a9e6AQMGVCi/Ro0a5bd8qOm2JUQxUvIvTk2YMMEtW7bM/1YGc+fOLeNX9FiIQuHKlSvu5Zdf9gKG7cKFC27s2LGps6JUOH36dGpPCCFKi5IXqS+99JIbOXKk/60oJkZDvxYtWuQ6d+6c91O1ENXNnj17XNOmTf1+OE385ptv+ilH3J599lm/lnr48OHe6vPwww/7X84ZTHNiDbLpSoQw/jC9bFPMbKHfEBdmCPcSLuEvWLCgjMXJ/GML3fEDv3DH7zCeBtcQTx4ozQ/CAq7PNX0WNlt4HNKxY8d0fKIW4TANYfjRPIwSpjG8Bv/sASQp7Yb5YffG5RtpiYtzUpyIdxgm17HhZuWclCauScp3CP0gnoQXB/eQd/gVvTYpHrgTd66z/TD/cwk7zJdoHCw/QziOti1eGoF860wUrnn11VfTceY4TAPHBmmxsNgsv/Gb68LwonVbiJqgJERqly5dvHDEYhpaTfnleMmSJWVE5NSpU9PXsnEMoT/Re/r37++6devmVqxYkXL5lL1797p9+/a53r17p1yEKDwY+Pr06eOFKvuIzw0bNniBs3jxYjdixAh/3eOPP+5OnjzpVq5c6YYMGZL1zUuWszRq1Mj7M2nSJO/Wvn17Hw5uu3btcsOGDXMPPvhgmTD79u3rFi5c6K83uJ9wCX/ixInp6djQPwZP0kEaGIiJN/HnHH4TRjjIGw0bNnStW7f21yEoeLBMEj4hYfqIGwKja9eu6eNBgwalBQnXIjgeffRRfx7L9RNPPOHPmcDAnbS1a9cuLQLi8tDA79GjR/sp6ui99E8mKJi+5po4Qj/wPynfzp496+rUqeN69OiRvo98W716tT8O2bFjh7t69arr3r27PybPb7rpJrd7927vZuWcT14bSfXT8jlKp06d3KpVq/y1pJG0cm2u8QjzH6NDtnoaRxgHll+MGTMmdeZTiFdc2wrrzPTp031+33ffff6eTHUmys033+yeeeYZ70fLli3dk08+WebY7iMsK/do/Q3bGfnFuXzKTYiqoCRE6gMPPODef/99bzENrab8zpw500Wnw2bNmuWv49zbb7/tXnvtNe+OPwyqnKMB9+vXzwtXoBO6dOmS27x5sz8O2bJli+/cZU0VhUTdunXduHHjvIh5/vnn/SCK8LNBcN26df4XwcGn0tq2beuP84FPrW3cuDF19CmHDh1KC0xEC20DAYRoa9WqlXfPhzj/sEixHhN/TUTs3LnT/3IuCmEzOAPp5bhZs2b+OBNh+vCf8MJjzlu+sU8eb9++3R9zXZMmTdwPf/hDd+utt6bv4/zhw4fTeRGXh4atObX0c+/WrVu9UM4F6gCiiwdp8yMp3xBNuFu+IPLIJwQWgskEMdY+CNNgwpa8JRwLi+MzZ874/VzJt37SZ1tauIc4E/dc4xHmP/lbnnoaxgGhh9iMe1iKEtYZ8pmyJmyEY6Y6E4Xy5X7zI3ps902ePLlMuZNWI2xnXMN9d9xxhz8WoqYoCZF64MABd/vtt/vpvHzgaRZLKBtiFEvLwIEDvSWVJ3cGQ4OOm3Di4H6sCgxIQhQK4ZrUI0eO+Lpt2JQ6ooPfNm3a5CTa8oVwaRswZ84cbw0izKSpy2yE/gHWHxNPM2bM8G0wm9g2IVLVhHHFYmYPDGyUiS29yEb0IfvUqVNefOYigihXwEIYkpRvCCwTwPxyDFhgiTMb/SZ5yAMD1lPiQd1CCOLOsU19U7datGjh/ciH8tbPsGzLG4+K1lPKh7ZXHsKyrkidSQLxa8sAKHfEdBJa6ywKgZIQqayjYYoHEYnAtOn7TJjVM1yvw4CyfPnytEWW5QIIUCNTJ8m9WCGEKESwIiJEbPoOq4mJDtvMilJVICAQONmmLvPBBm/bcp2erQ4QfYiVjz76yAsnpl7DuOY68xIVJvRD+Et+ZoNyJmxbdmAk5ZtZLx966CEvYMzKGgeiFLB82rUIQ8QP1l78paxPnDjhr8uH8tZPwkfAY2Aobzyqop6Wh4rUmTgQqI899phfyoZf+J3pYY16d/To0dSREDVDSb04xfS+TbFlAqspm01bgVlDO3TokHIpC0/HSf7iF53isWPHUi5CFBZM+7FUhfWhPEyF69QywRo6sLWH3IMVriKYtSvfKdUoWPLyXe8YpTLTh+XLrNWIJfKaPmHevHk+vdF1irlAGhG7Vlb4a2uLcwXLICLSHsgz5RtlgwXt7rvv9tPL1JskuJb0MdXPVDrXYgGlL6S/BM7deOONfj8kU74jdnOtn0BabF0lX69ApOJ/LvHIRGXV0/JAXpa3ziRhMwxY+IG8Dy2pnLc6Qd5TBpQFbtGX5ISoLkpCpIYvQtGB28tNuE+bNs1P8zB9j4hFULL2lAXknOMec+c+1gGZX+Hygf3797v69ev7F6ii0EkicOPWqwpRKJiVjDqMNYVBx6YS7a1iBmasT/YGMtgx1zEFjJUrX3iT2aZe2SD6khBYHJmezSZSsPzxgks4JRrOjORCmN6KpA9YX3j+/HnvD/FHZFgaTShaPDO9sR5CGrGCW1nhL/HNx+pNGhHKiA7KAAtopnxDxHItv9ngGvpX1vaDPQyZ3/S75EOUTPmOH0n1M453333XvyjEdfTFpJUtl3hEIYxc6ml5iLYte7s/ifLWmSSoSwcPHvQWZvxjrAzzBEszD1acI+8pg0wPKUJUB0X33/3ZGnZVgujFmsricwNxS8fBy1NJA2Q+6RMijnzbiRDlhf6MKfynn37aC6tChj4Xy29lCcnaCmtvmd7Xy7+iOsllXCup6f6qhq8CQPjxfqaXeJMyXwuOEEIUIuFLUEIIUZMUnUhlSq0mwYpqn7iC6HGUmo6vEELkAssrbIq7ql+iE0KIXCi66f4GDRrEfgexUGEBP9/4E6IiaLpfCCFEKVGS0/0IPoRfoVsoiZ8EqhBCCCFE+Sg6S6oQtRG1EyGEEKVESVpShRBCCCFE6SORKoQQQgghCg6JVCGEEEIIUXBIpAohhBBCiIJDIlUIIYQQQhQcBfF2vxBCCCGEqF1ke7tfn6ASoghQOxFCCFFK5DKuabpfCCGEEEIUHBKpQgghhBCi4JBIFUIIIYQQBYdEqhBCCCGEKDgkUoUQQgghRMEhkSqEEEIIIQqOovwEVYMGDVzjxo1dvXr1Ui7Fw+XLl925c+fcxYsXUy5CZEefoBJCCFFKlOQnqBCozZs3L0qBCsSb+JMOIYQQQggRT9GJVCyopUCppEOIQmD8+PFu/fr1bvDgwWX2q4v58+e7NWvWuJ49e6Zcyg/x3rRpk9u2bZubMmVKyrX6Wbp0qU+XEELUFEUnUovVghqlVNIhChPEEqIJoWNbZYmo2kg2wTZp0iQ3ZMgQt3379pRL+Rk6dKg7fvy469Wrl5s9e3bKteqRKBVCFBol/eLUhAkT3LJly9ySJUvcqFGjUq5Vw9y5c314RvRYiOrmypUr7uWXX/Zih+3ChQtu7NixqbOikDl9+nRqTwghai8lLVJfeuklN3PmzCrv8E2MEp6xaNEi17lz5yoXx0Lkyp49e1zTpk39fjil/Oabb/opcrCp8ldffbXMOSxs0WvB3MNzZsUNp6pxf+211/y5pLCT3ENw45yFWZ7pcCyGdr9ZDvGXdPNwGZ6ztLRv394LfeJHPPGDPOKY8+zjZoTxtHsyuRv4YQ8VnP/hD3/o48XDRhjfuHwHS0eu5QdJaYS6dev6c3H3hnEI0x7CNZS7+cEvfofHZt3Hb8sbNitbS1NYNknhCSFKi5IRqVOnTvVWUzb2M9GlSxcvKKNWVrO8Rt35feGFF/zGucWLF7v+/fv7c/x269bNrVixwh8be/fudfv27XO9e/dOuQhRcyAE+vTp44Uq+w8//LDbsGGDFyXU5xEjRqSFScOGDd358+f9uV27drlx48Z5dzseNmyY9wMRwYPY9OnTy/jDi4GHDx92Xbt29ffBHXfc4Y4dO+b348LGLXTv27evW7hwob8+pGPHjv4erlm5cqUbNGjQNUIvEybyuH/ixImuXbt2aTFEulu3bu3PIQpJW48ePfw0/qFDh7w4GjBggFu7dq2//uabb3bPPPOMP09+GcSHNFk8SZOlL3QP/TLoa0yIcX737t1+aVCjRo38PSwrSMr3fMvPYIlCUho7derkVq1a5e89cuSIGzhwoHcnDuQdecg5sLyN0qJFC+8H1wL3hsdm3c9UtmHZcB/HSeEJIUqHkhCpiEs6MKymI0eOdLNmzUqdieeBBx7wnTXX0hn269cvLVxxY9u8eXMZgYkFCtHJOSyzdN7A76VLl/z1UbZs2eLq1Kkja6qoEbCCIVAQHs8//7wXBqxxvO+++/z5devW+d8dO3b4T6K1bdvWH7MsYPXq1X4fkXT27Nkyx9Rp2gaiFwFmggZRybXdu3f31xE+Yojtpptu8m5JYX/yySc+3FatWnn3JCZPnpwWrzt37vT35AqC59Zbb3UbN270x4gzxLSFiV+IJCBeHDdr1swfx0F/EBWZwJpS8iGMp3H16tWMfsbBZ+sszuRlpnyHXMqPB4lcoJ+0dPCAgzh88MEHfRy2bt2aXoMbWumjIG7xw/I7emz3ZSrbsGy4j7ARyaHYFkKUHiUhUjt06OA7U6yX2UCMImixCGAVxQJBpw1YRekIcTeLgYEwRXQCnalN7TPgHDhwwO9HIT4MSk2aNEm5CFF9hGtSQysYIFIWLFjgBSy/bdq0yVs84f+pU6dSR59CO0H0IfIASyTClGtNgCSFPWfOHC88cE+ykiE0mY7mmhkzZnjRlA9YJU24s5E3ceIKIRSKpHxh6tzCIJ70AQjxefPmeQsh7lgUy0OmfK9KCJOwjeHDh6fTyD5lURHRmE/ZRuMihChNSnpNahIIx+XLl6etplhiEZT333+/O3jwoHczy0UuZBrcCQtLhhA1CQ9fCCVbU8jULgIt3PJ9kxxLabTuI/iOHj3qRR7T+0zzM+2Ppc1ICpt7mHaOTsMbiJjHHnvML8XhHqa78xWSXG/T5LZVxUwHQisMw5YvYP1kOp048FAcXR+aC5nyvbpAIIYv5bFV5OsG+ZYt6ScO5Q1PCFEclIRIxZLJulCspNkw6ybW1zjMQpF0PgrXJ1lKiQ9WWluLJ0RNgThiSQrrEXloatmyZbktecC/hDBVG64bRHDRFmx6m6llxCaiytz4zRa2WTGjlkFbjoBVGJjezseSSh7g75gxY1IuVQPpZs1oJgF68uTJck39kzfZ8r2qefvtt32fFl3bWhGylS37LKMA0k36bX01L19VpC4LIQqXkhCpTL2zLnTatGl+qt5enOIXNxbuM63PdQhHXnJibRrXsvHWKCB2bRkA6+QYRLKxf/9+V79+/fSLVCEMVPgRt15ViOrG1oFSV7FYMdjbdG34lnWu8BIP6zKZmsWP0aNHu+eeey69VtKm/LF4mRu/cWGzztHe+GYD/A/BEslMh4XHush8LaksKUDwWDhxb7vHwcwKD8Jxb+RHIZ6sGQ2XFfA2OvfZdDbLHBCb5fkOarZ8Ly/5pJE4kPe2bIOtIkIxW9myz8tjnOMa0l+d35AVQtQMRfff/VxfaCCGsWSwVtVADDP4sY416XMp+i92kSv6735RW6EfxchQGUJcCFE4lOR/9xci9jWB8OP9fFaFp319z08IIYQQIn+KTqTyOZZCJHzjH6LHUQo1HUIIIYQQhUDRidRz586l9oqbUkmHEEJUJaxXvffeezXVL0QtpOhEKi808WZssVoiiTfxJx1CCCGEECKeontxSojaiNqJEEKIUkIvTgkhhBBCiKJEIlUIIYQQQhQcEqlCCCGEEKLgkEgVQgghhBAFh0SqEEIIIYQoOAri7X4hhBBCCFG7yPZ2vz5BJUQRoHYihBCilMhlXNN0vxBCCCGEKDgkUoUQQgghRMEhkSqEEEIIIQoOiVQhhBBCCFFwSKQKIYQQQoiCQyJVCCGEEEIUHEX5CaoGDRq4xo0bu3r16qVcSpfLly+7c+fOuYsXL6ZcRG1En6ASQghRSpTkJ6gQqM2bN68VAhVIJ+kl3UIIIYQQtYWiE6lYUGsjtTXdomoYP368W79+vRs8eHDKpWIsXbrUzZ8/P3WUH9zLZrC/bdu2Mm5xEHfSQFqKiWh6hRBCxFN0IrW2WFCj1NZ0i4qBkNu0aZMXfWzsV5YwrSxGjRrlN0BwNmnSxE2fPj3tZvTs2dOtWbPGTZkyJeVSnITpLRQQzeV9yBBCiKqiZF6cmjBhglu2bJn/rU4Ib+7cuamj3OGeMK5Tp071mxCVBWJuxowZbsOGDa5Xr15+W7JkibvnnntSVxQmrL8+efJk6kgIIURtpehenOL6ioIY7Nq1a+rIuT179rhZs2aljvIDodmhQwc3efLklEt2ku5BuB44cMC99NJLKZey6MWZ2ku+7QRr6WOPPeaWL1/uFi5cmHL9DCyWI0aMcHv37nV33nmndzt06FAZi+aYMWNcnTp13KVLl9wzzzzj1q5d688hfocPH+737RzXnj592k2aNCl9fuXKlW7nzp3uySefdPXr13dXr151ixcvviY+WPG49+jRo2l/gftnz57t90mP+QOIWOLD9aThG9/4ho8r7lhht2/fXuaepLCB8K9cueJuvvlmfy35wLV2b5gvWBsR+xDmC+5Nmzb17u3bt/e/YfxDLL3kVaZ8DuEe8xeLuN1LGZ44ccLddttt6TTecccdPo5hmpPit27dOv8gw7p3IA6//vWvXZs2bdL5CGGchRCiMshlXLuuSZMm/zm1XyMwtffhhx+mjrLD9VEQfX/5l3/pHnjgAfeFL3zB7du3z7t36dLFzZw50/3Zn/2Z+/a3v+07aTrdAQMG+MHs+9//vvvJT37iNm/e7Pr37+/+4i/+wv27f/fv/OD2x3/8x+5P/uRP3JkzZ9w3v/lNf/+f/umfutGjR/sBAXf87tSpk7vhhhv8eQv/u9/9rvvDP/xD7y8gPikMwiacQYMG+XAPHz7szxtf/OIX/ZTmkSNHYi1J+eSTKC3ybSeIqlatWnnLKeIvCvWMOvr73//e3Xvvve7zn/+869Onj19W0qJFCzd27Fj3P//n//RCCMHyb//tv/UPULhTfxFftLmvfvWrvr5269bNffzxx/7a+++/34ujn//85/4alhjQdl555RW3Y8eOVAw+g7bDvYhC4oFgYv/v//7vU1c495vf/MaLUeL805/+1Lf5Zs2a+bZM++N6xNvAgQO9H4itMGzaJYIOoYVfIYTfunVrLxB/9rOfufvuu8/169evzDHpws/evXt7UcdGv0C6/9f/+l9uyJAhvr+hzRMecSAfyM9omi295H2Yz3/3d393TdwAgYlYppx+8YtfeH8RmsSH/Hj33Xe9W48ePdy3vvUtX952THwpt69//eux8SM/eFjGun7w4EEft9/97nfuj/7oj3x9I+70h+THj3/849j4CSFEechlXCuJ6X4sjwhGOtwQROP777/vRo4c6bckC6XBYPfLX/7S75NxH330kbvpppv8cdu2bb2F48UXX3S33HKL69y5sx8oN27c6N577z3vPwIWi8Nbb73lB1oGBUQpbNmyxf8iahlcTMCGcC/WDwYEISrKhQsX0pawODiPmATECMcIv6FDh7qzZ8+mrY5YQ4E6zQwEywfM2vfUU0+l9xs1auTbAOe5l7DxE7FcVfCJtlWrVvmwiMfx48d9eAhLwFIIpI9lBLTjOHiw5X7zI3qMn4Qxbty4dJ4yAxOCxdUsp6Sf+7BqJsGDKO2dPE8CgXjrrbf6fgYIm4dby1Pyd/Xq1X5/9+7dvtzCYyy0ZiXNNX6kGX8sXt27d/fh4C6EENVJyaxJjQMLwu233x67ZpTBdtmyZX6ztaBYN7AmICL/6Z/+ybsZdOiISMQl3y2Ns+gaDHAMPjfeeKMXpXT4WIGAjp94JREODkJUhIYNG3qLaS6YoDSw1NnLVlgNqe9Y5erWretOnTqVuqoszDDQTsIp7jlz5rh27dp5f6rjxZzwQRVxtmDBAh82v1hDK9q2WMpg+RIuTYgj+tAchTyfN2+et0zjH37HgTUWcWzhMpVvU/cVIVP8EOC2JIrfqCAXQojqoKRFKqISyw6iMBSjQKdrFtZ816MiQBGTSSBIOY9AZRqRKceQbANlkggQIlewfmJFY8q3PJgYsq1v377u9ddf9yI1qf5iuUMYh2IUIcZU+MSJE71YTRJiVQGWwzANbHFrRHOFuLMkgrTgF2s6M4GQjFtqEYJ1kiULrP9k1oVp/yg8PHA+TEdlfB0gU/zMAv3QQw/5MjVruhBCVCclLVINpvmZLstk/cwVBocvfelL7tixY/4YMYoYYGo/BGHMkgAIp/YRoJniwYCQSQALkQuIH2YFeCknFD7sZ/saBWKTuhsVTDbVjOWPaWh4+umn0/u8fIRlkHujVlOz1Fbl1H8Ioqply5aVKoqJO2kgLRC+fAksJbA8I1zCz1XcJU39U46ESTlWlHziRxqxtN59992+zIlHqXwCTAhRPJSESMVCOm3aNP/CBy9HIEoRjbhjQWXDArJixYrUHfHT/ZlgqpBrmeLjA+ImPJnaR6QSPi+pmIXD3FkTG7J//37/EoStVQ3BjXu4V4iKwpvYiItwqnjYsGG+nmaC9YqsKw3vY1YC8JP6yRIA3HlxKHzJj/DwH3fWiiJqzA+oyNvhCKetW7f6Noi/mb70YfFAQFv43JPr8oc4Fi1a5B8iw/SE8JY9+cs5wiV84pEE19g3bFmOgBiMs/SyZCIM980337zmASIXMsWPh3jKLPyOLg8rCFl+hRCiJqiVn6DKl/J8ZgrByduzDGy2HtVAFGNN1SeoRK7k205E9WKfeKqMafiqoDzxQwjzAhrWcrMeCyFEZZHLuFYrpvurEyy4iEyELW/5RwUq2BpYrjEQrkzzZ/sCgRBCVAd8zouvIkigCiFqiqKzpLIurDb+RSif2sn2EoYoXWRJLWxKyZLKmlOWVIR/YiCEEJVNLuNa0YnUBg0apL/7V5tg3R/feRS1E4lUIYQQpUQu41rRTffb/3pjWawNkE4JVCGEEELUNorOkipEbUTtRAghRClRkpZUIYQQQghR+kikCiGEEEKIgkMiVQghhBBCFBwSqUIIIYQQouCQSBVCCCGEEAVHQbzdL4QQQgghahfZ3u7XJ6iEKALUToQQQpQSuYxrmu4XQgghhBAFh0SqEEIIIYQoOCRShRBCCCFEwSGRKoQQQgghCg6JVCGEEEIIUXBIpAohhBBCiIKjKD9B1aBBA9e4cWNXr169lEvxc/nyZXfu3Dl38eLFlIsQn6FPUJWlKvsAtUUhhKh6SvITVAxOzZs3LymBCqSHdJE+IUQyVd0HqC0KIURhUHQiFetJKVPq6ROiolRXGylPOOPHj3dvvvmm39jPBa5bv369Gzx4cJn9KEuXLnXz589PHVUthL9p0yY3ZcqUlEv5yJQeIYTIRtGJ1FKzoEYp9fSJ6qFnz55uzZo1btu2bemNY9wzYfdVVJxUJdXVRsoTzsCBA92uXbtc37593cKFC1OuxcfatWvdgAED3OzZs1MuuSFRKoSoTErixampU6f6rSaYMGGCmzt3buroWjjHNUb0WIiq4sqVK+7ll192vXr18tuFCxfc2LFjU2dFtrZbXo4ePZraE0IIURH0dn9A//793eLFi92yZcv8VlHha2L0pZde8r+waNEi17lzZzdq1KiUixDVw549e1zTpk39vk3nYmG1qWncnn32Wb8ec/jw4d6i+vDDD/vf0DLGtDOWVtywmiGE8YepaDbOs4V+Q1yYUXDjHNew5WrRrey2mwnSaPGzdJgFun379um8i1qty5u2OLg39COME3kP0eUBVl7EI4wLZRKWL4TX2j6C3u6xMEKIy7hx41yTJk3cjBkzyoR9zz33XBM/yKVOWPhWz9gIy/LAjo0wL8K0ES5+UDacSwpPCFE4lJxIZXBisGLQ6tKlixeIDFpLlizxwhD3V155JS0SOeaa0aNH+23r1q1u5MiRfps1a5a/BvA3HADNb6b32rRpUyYMwN9u3bq5FStW+GNj7969bt++fa53794pFyGqHgRTnz59vFBlH/G5YcMGb2GlvYwYMcJf9/jjj7uTJ0+6lStXuiFDhmR985Ip8UaNGnl/Jk2a5N0QaoSDG1Pfw4YNcw8++GCZMJOmwzt27OjjwzXEYdCgQWmRkQRtMantxvUB2dpuJhBDPGROnz69TN4h7MmvQ4cOpfNu+/btqbs+pTxpiwNhxb0ILqbjiVO7du3cxIkTvd+AUKMMcDex3L17d3f27Fl35MgRH2eLC9P6TO9ngnIm/o8++qhPe8uWLcsIQyAuxIkwuMbqQ8OGDV3r1q19WJznXtKQVA/j8iSsZ+QdDwJdu3ZNH1te4mfdunXTeXH8+HE3ZsyYlC/OderUya1atcqfI83Um/KUgRCieigpkYrlks5wzpw5bvPmze6BBx7wgySDFh1Zv3793JkzZ9w777zjOnTo4O+h03r//ff9IHXp0qW0ewiDFx0t/sycOdMPSAxUhLdx40b33nvv+XN0eGYlwF/8Ix5RtmzZ4urUqZPToChEeWGwxrKF1ej555/3gzNC4r777vPn161b53937NjhP7fUtm1bf5wPfK6JNhCCULO1jLt37/Z1HeHCcoNWrVp59yQmT56cFq87d+7092SDB7+kthvXB0CmtpuECX1ElYk64kraEIDZKE/aoiDUiCtxwC+LEwLdRLFZzAkD6K8AUcc5HkKuXr3qmjVr5t1zgXKm/hAGaUf8ZStLg3QiQIG6xjFh51MPw3pGusjz8Jjz3Ef8qPNhXoRQF6wMCJe45FJ2QoiaoWREKh0wlssXX3zRD1pYSxCsWEuwlPCEzmAJBw4c8KIT+E4Xx8AgQufH9Vha8AMY/LgO92nTpqWnTDNBJ2z+RiF+DBJMiwlRVYRrUrGe0RYMhMuCBQu8gOUXi2I+oiVXCJe6Djw8YtkjzHAqOASrlk3/MmVs7TQbcW03Ux9QXsjTU6dOpY4+5fTp0zkJtvKmLeS2227zAjH6QhOWRfxlYx+/EaMmwggbNwQdAm7evHne+sj1UYtoLpDm8kDYoTivinpIesK8SCIaFyFE4VEyIvXEiRN+ALrxxhtTLs4PjsuXL/eWEjasJzbdzrW4MeiEFhSmCXHnifuRRx5JC1WeyM2fXKwukKmzJW4MqkJUB1iyeCiyNXhYOxGv4RYVPpUNooBpcKZiEatRcYSQeuyxx/ysBvFhyjgfERFtuzxYJvUB5QXrdLRd89Ca7WWpiqbNwDKN2AxFfvQFOTZbboC1kWl6hCrhmQWYX6b5iQdLk2pqbWZl10PqFJZlm+7Hep6ELQ2IPnQIIQqHkhGpWA14ckZAIizNWhk3Bcg5BOI3vvENP9UfB+fNAkQnhkXGBGsI1yF4o+e4J8lSyrXcc+zYsZSLEFULooSlJ6wPpc7GrSmMg3YFNiXKPaw5rQhmwYpaH22aF+srEGZ5rI3WdllPm9QHQFLbTYJ4Hz58uMxaUsQd7dym1pOorLQhSLGCstwIoUqc6EcoV0RXFKbQEWI9evS4ZlkGlGfqv7Igz3Kth7lCnaJukS/ADFsI+WZlx5cuyBvyiDjEvewmhKhZSmpNKtN8iM4nnnjCWwd4aenWW2/1U31s4edmmIrnY9379+/3xwxU9oIFG9NErB1F0OLOmjem+jmHVQr/wayynAtfvsDf+vXrp68LoaNkYIhbrypEVWFr/6iT1FUGa5sWtQGawZ31jdR/3MCOuY5BH+tXvmDVtLeq2cBerDFYK3jw4EE/Fc41WMRysTZmaruZ+oCktpsJ4sx9Fkceip977rm0hTKJ8qYtDsIivixvYkaHOOGXTZuzmfCjPJmaNzEGlLstO+AehHdlWdFJJ+KfdCYt6TAsHXH1sLzw9RTEv/kX5d1333VPPvmkP0c/jOA3QSuEKDyK7r/7ub4yYNoP60H4Bn9lw1cAsLKwXs5gQMX6wiCatGRA/9EuouTbTkqZyuoDcqEU8tzEYvShoLZBf4tgr+35IEShkMu4VlKW1FzAWmJWiNdeey3lWjWYAEYQG0wxYYnJZU2rEEJUBKyUrP9dvXp1ykUIIYqHWmtJLWRkMRNR8m0npUx19gHFnOc8CLN+mJeHqvqluGJAllQhCotcxrWiE6ksjK+u/+6uCfjen/5WUUSRSP2M6uoD1BaFEKLqyGVcK7rp/nPnzqX2SpNST58QFaW62ojaohBC1CxFJ1L5RxI+m4KVo5QgPaSL9AkhkqnqPkBtUQghCoOim+4XojaidiKEEKKUKMnpfiGEEEIIUfpIpAohhBBCiIJDIlUIIYQQQhQcEqlCCCGEEKLgKIgXp4QQQgghRO0i24tTertfiCJA7UQIIUQpkcu4pul+IYQQQghRcEikCiGEEEKIgkMiVQghhBBCFBwSqUIIIYQQouCQSBVCCCGEEAWHRKoQQgghhCg4ivITVA0aNHCNGzd29erVS7kUP5cvX3bnzp1zFy9eTLkI8Rn6BFVZSrEPyBf1GUKIYqYkP0HF4NS8efOSG5xID+kifUKIZEq1D8gX9RlCiFKn6EQq1pNSptTTJ0RFURspS3nzY+nSpW7btm3+NxcGDx7s1q9f78aPH19mv6JUpl+ZwP9NmzZVOJz58+fnnGdCiIpRdCK11K0ntd06JCqHnj17ujVr1ngRYhvHuGfC7psyZUrKpfBQGylLefIDodakSRM3ffp0N2rUqJRrabNw4UI3YMAA/5sPtIVc2o4QovKplS9OTZgwwS1btswtWbKkyjvouXPn+vCM6LEQVcWVK1fcyy+/7Hr16uW3CxcuuLFjx6bO1m769+/vFi9e7PuBqVOnplyT3csD7Zz2HqVLly7upZde8hv7NQVrWU+ePJk6EkKIwqNWilQGh5kzZ7rTp0+nXKoGE6OEZyxatMh17ty51lgvROGwZ88e17RpU7/PFCtTn1hY33zzTW9Zw+3ZZ5/16xyHDx/urUcPP/yw/+WcwVQn1iWbpkUI4w/ToDYValPJ5jfEhRkFN85xDVs+Fl0EIeKSLZsA3Lx5sxszZozPk5Ak98pk7969vm9gY7+qiOYlZQPk6bhx41ybNm3cggULYvPYyo8tHysiYVInwvpi9QKy+ct9SfXNCP0wfyHJ3QjjZvvUmUz34EZboE1E8yoML3QP8536HqbFsPBfffVVf521B8ILj4H7rd2wWTxxtzRYePmUlRDFQNGLVCwfDEj8Ro8ZBGzQysVqGlo5ufaFF15ID3RYVcyv0MISuodWE8Lv1q2bW7FiRcrlUxiU9u3b53r37p1yEaLqYeDq06ePF1/sIz43bNjgLaxYDkeMGOGve/zxx711beXKlW7IkCFZ37xkqrlRo0ben0mTJnm39u3b+3Bw27Vrlxs2bJh78MEHy4TZt2/f2GnXjh07+vhwDXEYNGhQ7CAfhXZYv359//A5cuTItACkHZpltKIzJ0l9AH7iN+70Pd/61rf878CBA70QDMM2KypuYX8BcX0J97Bv9/Cbi/WVPBs9erRbu3atz8uJEye6du3aeTE1e/Zs/2Dx3nvveXeOQ7j3/Pnz6fsgVwv8jh073NWrV1337t39MXXtpptucrt3766Qv4YJtGiaQnc2q4uZaNiwoWvdurW/nvzAeGDC0MAf6iFtIsyrsI4jDmlbpJU00pasDlPfqfdxwpHwLT9oJzw4gB3TbriPvLR2E40n7Y828+ijj/rzzJY88cQT/pwQpUDRi1QsH5cuXXKdOnXyx/xyjDsdOgMWG8flFYYMFHQo+MMgyFM1bmzs28A4efLk1B1l4xFly5Ytrk6dOv5+IaqKunXr+oGPQfT55593q1at8oPsfffd58+vW7fO/yIsmPpt27atP84HPoO0cePG1NGnHDp0KD2YI06o62fPnvUDaKtWrbx7ErQhE687d+7092QD0UY7fOONN66xTN5///1u69at6T7grrvuyknkRUnqAxDB9957rxcynEMcv/766/6XfEEI4o5gxPJmVtRonoV9CRuC2x6YW7Zs6UUL7ghAREo2hg4d6o4fP54uh+3bt/t86Nq1qz/OBMLWBBP3HT582O/ngl1v5dyjRw//Sx2riL+AALz11lvTeReGdfToUV8+cWIwCeoWYhKIH8fNmjXzx9mIq+OUH/lOXQ/rMHAuCuGtXr3a7+MH94XH5ifhWFjE88yZM34faH+0a/ICyBvWGpNXQpQCJTHdf+DAAdehQwe/zy/HEFpRsGqUF/zke174M23atPSUKRZROhKeXAkrhM7O4hGFgYrBhs5EiKoiXJN65MiRMm2AwY/pSwQsv1j8ch2g84FwqeswZ84cb/kKpyyjMLja1OaMGTO88MjGjTfe6NvhsWPHUi6fQptE7O3fv98f83DIgyPX50tSH8DDKN8qRYBWBPzHWkffwIYotfJgWRJxz7ffiC5nOnXqlH9wyUXI2bQzG/UnHxBYWE8JhzqHsDIRVRF/AcuhPXiZH5QFIg7BSl0uz5Q38cvlgSiOsI4DVlaLH3WY8irPA6BBWkgT/pG+Fi1apM5cSzQuQhQ7JSFSGYQYjJietGPAinLw4EFvyYhaLvKFqR38ibOKvPLKK+673/3uNVNxmQZ9OhKenIWoDnhYY7C0aUIsQQzw4WbWmqoCIUAbDadpQxCojz32mJ8aJz68eZ6rcECkIoyqEh5K//zP/9x973vf81O4P/3pT90f/MEfuC984Qvuhhtu8H0Q8SgUTEgb9Ec8uJhgTAIhyb1WLxBH+YAoBSz2PGSYNbGi/gL1gXphfrDZjBRT8xwjVmtyypt0hfFLWtqSCzwYIXSxguMXbefEiROps9eCGKaM9UKcKBVKQqQyjcfaOQQiDTicYsd6AGZpzQSikY4cf5gWtAEHP1i7lDRNSHgIVTArDfckWTzwJ87yI0RVwVQr9ZR1btRzppCjIjEOG+xsjSH3YCmqCGa1ik79m7UJaxAQZi6WVNKFNTO6nMemRW0pUL9+/byQDKdLs/G5z33O38PU+bvvvuvdEPg8CJOOH/zgB+6RRx7x064ffvihu+6667xgxeJHPtPOk/qNkLCPYWM9u/Vd5QFrJvlpZYw1ztYkZwMhaVZY7uOBIh/IF/o2pvrJa+oe5OJvpvqGP9QbXmzLRHmm/isL8j1ubWt5oS5Rh6wukKfhTAD1zGZISC/tm7ynDDCkJM1YCFEslIRIhXfeeccPRvwaTLfTgJmiY82dTYPwggJTdkybsMjdLKBcf/vtt/tzdAp2PeeZJsQdv7BKMZXIE7y9MMFAxRSdCWSz7nJdFDox/A7FtBBVja1BpU5Sb7FcYvVhsylSBjesNvZ2P9gx17GmEZGWL1iEbMqSDaIvt2BtYuYDyxHXIKpytaTy1QzaG22RjTYLpBN/cOOXY2ZArO2SHjb2cQvdv/a1r7m/+Zu/cV/5ylfcf/2v/9W3f+796KOP3L/+6796/3/3u995y92vf/1r9/7777tf/epXDiH2+9//3vdFTK9zn/lP3tN/0C/ZS1XMxhBf7udaNvYtDeWBvCQcK2OmiSnHXKzl3EcfxX2sZcYyly+INfrXt99+O+WSm79h/eO6aH1jyQgClHNs0bfi2XjZbt68ed6vysDaDXmY7cGOfOclp3BJQkWWgpCPjBPmH+NV2CZ4OOLlK84RP87l8tKYEMVC0f13P9cXC4hhrKnhC1WIYTpV1pgldV76j3YRJd92UspURx+A4EVoYpXDQloesFZ/6Utfcp988okXE1WJ6kbtw5bHLF++vNzLCYSoSXIZ10rGklqIzJo1y//aW7rAJ1dY21bRFy2EEFUDAhUrHxa88gpUsCUCn//85/3aVSGEEPkhkVrFYEUNp+2ix0KIwuH666/3lk+m6m1KvyKwNIDlAAhVpv6FEELkTtGJ1KqeNqtpSj19QlSUqmojvKXPxnrQyvyMj/39KNZUXsSqbNRn1E54kYxv9GqqX5QyRSdSeYu3lCn19AlRUaqqjTDNzwuTub6slQ/4y9IBwqhs1GcIIUqVohOpZpUoNesB6SFdpE8IkUxV9AFMxeMf60jzgTfxc4U4Y0ll6r8yUJ8hhCh1iu7tfiFqI2onVUvjxo39WtR8BB9/HsBfUtq3KXOB717+9re/lbAUQtR69Ha/EEJkAesmH0WvDuHIy1iEJYQQIjsSqUKIWg3/6IN1szrg01ZM91fWlL8QQpQy6imFELUa3uivjM9N5QrLCghTCCFEZiRShRC1muq2albmy1NCCFHKFMSLU0IIUVM0aNDAffDBB1nf7H/ooYf8L//nD3EvTg0dOtR1797dzZw50x/Hccstt/hvppbaF0qEECJfsr04pbf7hSgC1E6qjoYNG/rfbN9HRaR+73vfc3/7t3/rhWpUpCJQp0+f7mbMmOFWr16duutavvjFL/rlBdW5xEAIIQqNXMY1zTkJIWo1v/vd73KafkeYIlARqmZVNXIVqAZhCiGEyMx1TZo0+c+p/Rrh/w/f/xOLECIZtZOqgzWifMw/F8vmjh07/PUIVSywHTt29BbYyZMn5yxQ+VYq9/z+9zU6iSWEEDVKLuOaRKoQRYDaSdWBVRPhiEjNRTiaUP3Od77jj3v06JGzQL3uuuu8IL506VLKRQghaie5jGua7hdC1GoQprzExPdSc8Wm/iFXgQp6YUoIIXJHIlUIUevBispb/lg6cwWh2qtXr5wFKn6zREAvTAkhRG5IpAohaj1YN5n2Zyq+qrj++uv9NH91/buVEEIUO0X5CSosHo0bN67V/4HNoHru3Llq+b9xUfPoE1RlqYo+gH+BYjr+N7/5TaVbOxG/rHs9c+aM3uwvAmrTGKOxRNQUJfkJKjqP5s2b12qBCqSffCA/hKhNVFUfwN+VYuXkY/uV6TfT/LwgcP78eQnUIqC2jTEaS0QhU3Qiladb8RnKD1HbqMo6//HHH3tR2bZt20oRKVhQv/SlL3mBqhemioPa2qdqLBGFSNGJ1NrydJsryg9R26jqOs+6UcL4yle+kteLVFG6devm/13qo48+yvjJqfHjx7v169e7wYMHl9mPsnTpUjd//vzUUc2TKa7VCfHYtGmT/60MamufqrFEFCK19sWpuXPnugkTJqSOqg/CJOwkpk6d6jcjeixELvTs2dOtWbPGbdu2Lb1xjHsm7L4pU6akXEqXTG0RUcnUPCKTLR+xyndTuefw4cPu7Nmz3jorqo6FCxe6AQMG+N+KwEMAW7FQFWNYseWBKH30dn8FoaNYtmyZ31566SXXpUuX1Jn8GTVqlF8b9Nprr6VcnJs1a5Zfz1YTgloUN1euXHEvv/yy/0wSG/9yNHbs2NTZ0qJ///5u8eLF6bZYGQ92TM/zotPVq1d9G2Rj3R5T+IhWE6788uY+L0Y9/fTT7v777/f3IlC5VxQ+WGEp1zlz5qRcPoO+1/p2NvYr23AQjiNsNdXfk37yobKs0kJUlKJ7u5/ro9BxPPLII+7GG2/0Lz+sXLnSPw0+88wzfqDmrwth48aNfuAYPny4f5PXYCB68cUX3QMPPOC/Y9iyZUs/6Lz33nv+7w7pQLgPwQgcHzhwwDVr1swPXFwThU6sa9eufn/Pnj1eeFocjTCupIGOYcuWLdc8ySJe+/Xr5y0Fe/fuTbl+ht76Ln3ybSdYRJ966im3bt26tIUJ6yh1kvrEFO2TTz7p6tev74UUAu/IkSNpNzh58qRbu3atv3bevHl+H6if1OmdO3e6xx57zL377rvujjvu8NZaaNq0qf9t37592m/iEBdm1PpFGxgzZkz6w/q0j9mzZ/t9I9oHWPvftWuXFxAhcX3Dvn37MrbFkDDPmQ5lAP/rv/5r9/Wvf927kQ5ExS9+8Qv3l3/5l75P4M8ByDv+y3/79u3+OkhKG+4jRoxwzz33nF8La/uW3wZxO336tJs0aZIvS/ox84NlADyIwKFDh3wZh9cD+U95LV++/Jp8x78+ffqUibOV86lTp3KK93333edFOvdH61+YdqzU9M3R9Jl/9HF33nmnd7O0QD75d+LECXfbbbf5a1q1anVN3kQJ8ypav+jLW7du7d544w1/3L17d//AF+3TbbygzvEwSN3ALyzpr7zyitu8ebO/Lg4bU8L6G/XH6ijkM4atWLHC5xtLM0gnD3SjR492S5YsuSZO1HfqEm04Lp+EqExyGddKwpJKw2SAGjlypG/ECDoaOJ0Zg8bMmTO9QO3QoYNvpDRQGi9u3MNTq4k/GjcdCg2ewZQG/dZbb3kLJ35yDIhJOm8as7kZNG46CvwmbO7t3LmzD4cwCZtzxIP4AOeBATQK19BRkS4hygOiARGC6GD/4Ycfdhs2bPCDN2KRgR0ef/xxL7BoR0OGDMnagSDcGjVq5P0xMYQ4JRzcaJfDhg1zDz74YJkw+/bte41QAh4oiQ/XEIdBgwZlXfNI20X40L6jxPUNkKktJoF19D/8h//gvvrVr3rhwrT+f//v/92LMwTBN7/5TffP//zP6bwLBSqUJ21xIMq4Fys5Ig2B2a5dOzdx4kTvNyA0KAPcKW9AXPGwHZfvPHDQX5ImIF70YbhXNN5cS/0yP6gD1AWLVwhhIgi5jvRwbOtwc40H9/CimuVFmDdxwgs/MDbs3r075XIt9PV89YHxAUEI1DvqkfXz5J/5z9jBMecOHjzorevlIfTnV7/6VbnGMHjnnXfS7aNTp07u/fffTxTN5AMPY3HlI0R1U/QiFeFIpzZw4EBv0aAzpFEbDFA0Xjpn3Lk+E3QoNF42Gj6/CEdEIk/MNHD8wk+eerEGcB1PpdZB0RnwhEB8pk2blrYsZYJOEnFgHU0UwkRwC5ErDDTjxo3zFs7nn3/erVq1yosaRBVg5QL+i55vJGKFyheEGwNlCNYqwgEGPNod9RfrE1atTGCJMhGFQOKeXOA+wqDNhVOzmfqGfDGhj8gyKyBxJVwEYDbKm7YQHggQKMQBvyxOW7duTYtixCl9DmEAD8mAFZ1zgNCxtcrsk56wjzFrIe4VjffQoUO936EfYPEKwW+EKJAe0mVCO9d44G7/Aoa4pMzjwgqhf2cmIYkPPvjA9//UX6y0CGHgYSWun8c/jBuAhTSXscfqKRtjCoT+kBbGiWzEjWHEweLM2MRxEuQDfUe2PBOiOigJSyoNmSksniijT5WVgYlcBCqDHm+SGvZUy8B47733poUqg4HFJxcrDWTrgOikhMiVcE0qAw+DoMEAtGDBAi9S+G3Tpk2VPAQRLu0TWO+G4CDMpLfUsWrRvriG/8S3gTUXWI5De+PBlGlYBuPK7hvI02g7ZJo4m/iGiqTNYAr7+PHj6YcAg+lf/GVjH7956EWwITgJGzcTiPRT1IvQukifhZBFEGJRtYePyog31nWLH37Q1+XyUERek+dQnnggahFpXM+9+BGFeGR6eCGuPIyRl2z2Ihz5hnUViyWWVOpBElj6s9U7s4qyRZetVBQMLaQRv8nPXMYjIQqBohepNHwGoripvkyEVoNc4MnTpuTp9KIwBWSfmaFjRczGPTkTbtxTdZK7QYfMNUKUB6xTDLZMFQPWThMptkWFT2WDZYxpcKZeEavRLwggIFgzyawE8WF9ZJK1LBO0E/oElipk6huytbk4sDBF+w0saEePHk0dxVNZacMyTV8QivzwYcQ2W26A8GGaPLSMJoGAxW+ztGNhr6x4IyzD+CUt94hCXpM+HqrKGw/qNfckLTMIH6Ti4Bx1hYcgey/BoM+n72ds4MW5OHr37l0mrlhfw5m38kKcch3DzNDyjW98w0/1C1EslIQllYXht956a3qqhEXo2UB03n777f56mx7MhD2Jhg3cpnrYmO7BcsETKv7ReeHGOQSCrVs1fzgXdlS2FtWEcAj3co9dI0S+IE54uGJ9KIMV69aiIjEO6jTYdDb3YBWrCIgnBu2o9dEsazbtSpi5WMtou7Q5a4tYElkzzsCcqW9IaotJEG8+KxWuhUT0I/7NQplEedMWBcHGS2z0EwhV4nTs2DFfrlHxBQhNhHVoGU2COkK5YE3FT/zONd6c58sHtqaVF35atGjh9xHWxNcekDKB3ywPAPKYvMbCWxn5h/GA8o6bxsbdwsgF1nrSx1v9ueuuu1xoScWd5SXUOYiK2zjipvszke8YxvV8sH///v0pl3jIB+oZbZ/2nsun64SoKkri7f7qAKHI4vdFixZVaLowE3RMfACc6aMwjLg3P0PyyT9RnOTbThhUom/348a0J0IEwRK+Kc2AZG92MzAh9MwNyxrHgAUWEA4IM6xb4dviCCcsiyb4EBpYrxBA7JtASHrLmvuxeoEJ5PDLAlCdfUBcnodxRKiEb6rzkErexFmlk9KGKEDQ5PN2P4KP8kO0kY+cCx8eeLHI4kC4WK6tfDNB2VNOPFiHZZot3sQ1vA5hSj2w+md1yogrf9KEf/ZmPmCBtRfyypN/YbhYRMN0hYTlVtH6hVgkLXFfaqlJGF+wvGYSzNR38tnaMPkX/eqDEJVFLuOaRGoW6HBY38ZUDh1/VXc6WGfBOpLocRz55J8oTvJtJ6VMdfYBpZDniA4wsVeomEiNE+hVDWHbJ7QyrS3NhUITqYhNhDr/fBY1gERBnEYfboWoKnIZ1yRSSwCJl9In33ZSylRnH1DseW6W7Kg1uhCpSZEKJij/43/8j/63NvJXf/VX/jdulkOIyiaXca3o1qTylqX4DOWHqG1UV50v9raF6GJ5B59xKnSBWgggzNhqa59Kui0PhCgUis6SyuJ8fb/tM1ibxTcuRWkjS+pnVFcfoLZVO6mtY4zqu6huStKSSiOiMdV2CyLpV6ciaiNV3QeobdVuatsYo/ouCpmis6QKURtROxFCCFFKFIUl9be//a277rrrUkdCCCGEEKKUQfeh/7JR4yKVv5grz0ethRBCCCFE8YHus78YzkSNi1S+3fbFL37R1atXL+UihBBCCCFKEfQeug/9l40aF6ks2ua/j/mbRv6yTVP/QgghhBClBfoOnYfeQ/fl8nJijb84ZaCs+Ven66+/XkJVCCGEEKKEYA0qU/xYUHP9ekbBiFQhhBBCCCGMahWpn//8572V1DaOP/e5z6XOCiGEEEKIYub3v/+9+93vfuctp7ZxXB6qRaTWrVvX1alTR9P4QgghhBC1DITq1atX3ZUrV1IuueDc/wd6NwgUMuuCHAAAAABJRU5ErkJggg==;" vertex="1" parent="1">
          <mxGeometry x="200" y="250" width="681" height="389" as="geometry" />
        </mxCell>
        <mxCell id="3" value="" style="shape=image;verticalLabelPosition=bottom;labelBackgroundColor=default;verticalAlign=top;aspect=fixed;imageAspect=0;image=data:image/png,iVBORw0KGgoAAAANSUhEUgAAAn8AAAB5CAYAAABIiEfPAAAAAXNSR0IArs4c6QAAAARnQU1BAACxjwv8YQUAAAAJcEhZcwAADsMAAA7DAcdvqGQAADO9SURBVHhe7Z0HsN1F9ceXEnrvnYReRJCAQoBEEDACggKaARQcpIUmhKYUEQGlSS9DHQFpI0UChEhIRoqANEEGpBkICSEQA4yE3v7z2dxz/+dtfu2W93h59/uZ+c279/fb35azZ8+ePbs3mW3AgAFfBiGEEEII0RHMXvsrhBBCCCE6gG51/o4//vjw2GOPxeviiy+u3e1Zbrrpplj+XXfdFTbaaKPa3d4B9aFe1O++++4L2223XbyPrExuyBBMlg899FDYf//9470ySEd6n09P0kydezP0D/1Em3qjPgkhhBBVmMn58w4bjpPHT35cqUNhjlZvmeyp7zLLLBM/L7roomHgwIHxc6t4GfmrOx3c9dZbL/7t169fWH/99ePnMkhHerD3e5Jm6lyGd2hT/YSy5z1FOla4shzwqunahZePXXJkhRCis5jJ+Zs6dWr49NNP42ccJyYnY8UVV6w7E7DccsvVPs2IYi2wwALxM+9PnDgxfu4ObMIsm9xHjRoVpkyZEj+/88474Yknnoifm8XK3WmnnWp3eo5nnnkm/kW2Tz/9dPxcBumsL+39nqSZOvdlshzwDTfcMMw333y1b93PVltt1WUMw1JLLRVOOukkOYBCCNEhzOT84SDhKAGTBA6f4SNJsPLKK9cnDCYQc/5wuHC8ugMiF0RGqk6Yw4YNCxtvvHHYfvvtw+OPP1672zg4fsccc0y93PHjx8d87br99tvj/e7ilFNOieUMGjQoXHrppbW7xZCO9LzH+z1NM3Xui7z77rvxb7qYAnMILU1388knn4QrrriirrfoMbQzMi6EEKJ3M5Pzh4M0YcKE+BlHb8kll4yfcfJw9jw4ezh94KOC06ZNi3/7EnvttVfd8WOrDKfSg6Nz4IEH1r4JMTPoD5E+A0fQjiX0FD/96U+7OOI2Vv1YF0II0bfJ/MHH5MmTa5/+f2vXR/YsWuAnM4sKFm3x+R8ypOcCs84icflzdGzz7rPPPnUnc5VVVolp8rZ/cVizflBh27e+HP88xU/SH3zwQbjzzjvj5yIaLaOMrB+BgL9vl8nMn030coSi94z0/fSdsrNpPr2lbTXPZknL4Up1EBo5Ezd48OAuaSkjCyLh6A34rV/b8uWZHU9IQbd9XbhSPWpWpn5BRx2efPLJ+FkIIUTfJtP5YxKwycq2dv1ENXbs2Ppzcw4XX3zx+DfvvJ9tMxk4cLvvvnt9EiPqYE6dh3fyJtVmaHTbGHxUc/r06eGtt96Kn/Mgf85QpWXwnfvtcnBwDLxMq2AOcdZ73MtzdHiWvrPNNts07cxCq3ma8+8vvzjwmH56SEdE1xxA+iXv/RQWQ7vttluXtLQlq2/fe++9unPnt37NEeQZaVLoB1twedAjjiBkySlLppxRTetF3uiiRe7HjBnTbUc1hBBC9C4ynT+cG5wcsK1dc/K4P2nSpPpznEMmobLzfjiLJ554Yhg+fHjdeWISs8ihnQ+zy6czB5StVs4r2Y8Y7NxdugVbhD+3yDk9K++ll16K97LwjintLjo7iCxwYIB62vkq2m4Oc6tOE/C+RSORE/KiHMr76KOP4v0s9t577/qE788t4jgBz0iTUtZ/zdAdeeZhZz/tMj2iX+2XyOaM+X6jbm+88Ua8n2L6Y7KDrB91gP34xdrn+y/vxzjoGWdVfb3tbGmenHzd/TnUTTfdtItTf9RRR9X1gHRfxZlQIYQQXw2Zzl967m+ttdaqbw9xH+fOnuP0rbDCCnXnL28ie/bZZ+N7Pu8siFAwmV5yySX1yckc0Hbgt7SJiFiki4hPOyIfTMhMzPDUU0/Vz1eRNzKAdjg4OEvmgCMb5IXsKG/EiBHxfgrt9Nt8V199dfwMbGWbc2rOtsf338MPP1y72/UX343Sap7pj264zKnLw7ZRfYTPooL+/BvPSUvd+MxfD/IfPXp0/Ox/VZ2Hj6bjIJqecK9su5W+sOML/pfmWXLyOkf9zKn2Y8g7nnL8hBCi88h0/sCcJCbCddZZJ/4aEOy+f45zyF8mQP6pmGawc0rd/c+oMNHZmUUwxylvuxOK/vmbrwqckZEjR3ZxOpAdMszaeuxkvPPEVnEeV111Vd1ZgrIzpY2Ak2tbvzhi/fv3j5/zIuWAnnG+zy+EhBBCiFbJdf7Sc384dz5KYc+5TySDv83+W3pMcuuuu278TJ5sBRLF8U5aO7EtQCZ2g8k1a7sT/D9/Q7Rmhx12iJ+/aojw8M+o+C1laMe2cl9i6NChdefJooWpzACH2rZZve7hBLbDobaoOHWxrea8SDmgZxZFRlerRDY9lGMReaLE5tjibA4ZMiTmp6ifEEJ0HrnOn99WXGSRReJfP4HkPU+3x6rgf1BhW4F+ayoPJra8aF0eRBhtIuefZvGTadaPAoA2+W1JJs30RyjkyT3vNOPQmhOWOrhlW31lkB8RKdpvk7k5LMjS//uMBu2wLffUifWOBmma6cfeim2P0s/jxo2Ln/32vHHttdfWf/zBAsGfmWtle9vwugFlemD6SDr7hXn6b22meJ3zferHpo+EtiOqKYQQYtYi1/nzjoLhnYKs50VRjCL4dbA5YDhWTEpZv5YFn5bIBltijU5gtj3K5c9+FdWfCAnpDaunXbZdjSPGLyeB+tMOnvv2tOuXlTjHtN/qYFuaRRFYv7Xp28Bn4Blp+hL+iAL9TXuzjhfMNddc9ec+DfrWjv+hhD63rV8o2vIFO4Po9cj6KY+stDiP/nwn/5izHePoLccYhBBC9By5zh/4H0dA0XcmyGbP+zEBXn/99XWnDoi6ZG37ZqVtFSZHtgHLtsCIFPpfpnq8g0A+WduKVctpBSb9ov/NhPs8J11K2buzKqnjTj9cfvnlM/VPFvT1oYce2uUfRm4Fv8AoWyyhb34MUJcbbrihUPfRQa+ftPH000/v4mT6YwxlDqgQQoi+x2wDBgz4svZZCDELwpEDi1Li5Op/mhFCCFFEYeRPCCGEEEL0LeT8CSGEEEJ0EHL+hBBCCCE6CJ35E0IIIYToIBT5E0IIIYToIOT8CSGEEEJ0EHL+hBBCCCE6CDl/QgghhBAdhJw/IYQQQogOQs6fEEIIIUQHIedPCCGEEKKDkPMnhBBCCNFByPkTQgghhOgg5PwJIYQQQnQQcv6EEEIIIToIOX9CCCGEEB2EnD8hhBBCiA5Czp8QQgghRAch508IIYQQooOQ8yeEEEII0UHI+RNCCCGE6CDk/AkhhBBCdBCZzt/xxx8f7rrrrrDRRhvV7rQG+ZAf+YrmQHaPPfZYuO+++8J2221Xu9s41hdZ/XvxxRe3nD/cdNNNhflwn+e0509/+lOYb775ak9mYHXkOXn1Jazt1q79998/PPTQQ1H28Otf/zrcfffdYffdd4/f86iaTmTTbhvX20Hv7rnnnqhvgL759vsxZ7rYLpvTXVidO2FeoU96iy3sTXXpLsrmsGbprnyboVsifxgYDE1vNBhVaKdytyMv5Dh48OBwxRVXhCFDhoRRo0bVnsz6rLDCCuE73/lO7dsMNtlkk7DYYovVvnUWSy65ZFhwwQXD/PPPX7uTTdV0onfQ22zigQceGLbffvvw+OOPx+977713mD59eth4443js95gczrByejtzOpzuchH276zACuuuGL8O3HixPi3r/DBBx+Efv36hW9961u1OyFGAXH+3n///fDxxx/X7nYOhxxySNh8883D5ZdfXruTTdV0QlRh8cUXD9OmTat967s2Rwgxg0rOn63AuNgG8FsDKYTg99lnn7DooouGk046qcvKjWiObfex1WVbEAZ5Wv5loVG/TcHltzBsu8IuXwfyZCVz9tlnxzrw3JdFWla/q6yySnxmWwo8t7pzWftpA/etLZbOZJaVV0qat69PkTw9XnZFZTXCj3/843D77beHRx55JOY5duzYsO+++8ZnSy21VDjnnHPCgw8+GJ/x97DDDovPjC222CLcf//94dFHHw1/+ctfwmabbVZ7MoO33347TjjrrbdeWGeddeI9ooDLL798eP7558Pnn38e78FKK60U+4z8KI86XXnllVG2QPvpT2RElIIyqe/hhx8en5eR9oHXpxQc1COPPDLce++9sRzqctppp8Vn1Ae5WD0ffvjhcM0114SBAwfG52VYO0yfhg8f3qUcIjGQpisrl3Sk5/0bbrgh5vfAAw+EY489Nj7PIh1jvjzD8rU01MtIxyHfSZ9GEnjH9NrKpJ7ka/1AGsvHjw8Pefjy+ZzahbRfDzjggHq+6djy9U/bbnXmsjS+bA/5pGO40br6unCldU3hPd639LvttlvtyQws/z322CP+RX+wVbSToxhZNifN09fB8rvtttviM77bfUvvZWh5MaZt3Pnn5F3FdnpMF02uefXN0kHuUQ/+prYgr19JRz7ULasNVn6qy2m9/DuGlxt5E+U3rFz/Duktf8PnwWUyrNo+0hfNPXzPy4Pv9oyyvKxTfD6+DWn9fRl85j1718rw5aZ1qtpuT94c1t1zY09QOfLHIHzmmWfigKTRG2ywwUwKC6ecckpU9nfeeSeceOKJYdiwYbUnIU5Ep59+esyDFeWOO+5Y72g6YuWVV46THc+fffbZsNdee8VnKbyDMk6YMCGm5XrhhRfiMxSGTqYO3Ce/BRZYoEtHzz333GHNNdcMhx56aHzOdoeVRX3psPHjx8f3aQ/5HXPMMWHMmDHxHu1abbXVYvsvvfTSeN/assMOO4QpU6bErZOsvFIsb9pLGi4+H3TQQTG/InkapJtrrrnqsqPMTTfdtC7bLFDQSy65JKa1i3c9/fv3D2+++WY488wzo4Iitx/84Acx35/97Gdh0KBBUe44Pv/617/CPPPMU3szhHnnnTesv/76cXDSnuWWWy7svPPOtacz+OSTT+J7RB2++c1vxntEAXH6nn766fjdoL6ku/XWW2N56A9OI5OXMcccc8Q6Mdio7+yzzx6+//3vxzqXseGGG3bpX3Rm6NChtaddOeKII8Kuu+4ao5PXXnttPHv36aefRqeQZ0QuX3zxxXDRRRfFMbPGGmuEESNGRAe2Ebbeeuuwyy67RHlceOGFsU1ZNFLuWmutFV599dVw4403hs8++yxstdVWsZwU+pgxZluBXDjVnDFEZwH95/vVV19dlxt6CozDbbbZJt7jGTpMpLcqyy67bByfbE1iNxhvltd1111XS9UV2owNoe5cfGbiMgcYHcRm2FYnOoUOWv2IdtkEmdaftnt7Ba3YxEbqWsWmecgvtY/YB95JYfwiY2wUNoDx85Of/GSm+qZ5Wh1MXoA8n3jiificNleRYd6cUMV2epA7NpwysL1F9aWOjFfGvIGtwm5jz8nH7DHvvfzyy7VUM4NNpI3WhnSMgNdlKBtXqdyuv/76sOqqq8ZnVUnzsPFn803WXJZSNPcU6X4jczn1pF8sLU6Uwfxj9aeMddddt4tcfR3oO+QKWekbabdRNId199zYE1R2/hiENgBHjx4dFYJzR42A4FF0GDduXNzyw2AgMJSFaIUZ5jvvvDMqhe9swyblq666Kv4FJjnexSF46qmn4iAG7pGvGVpgO3HkyJHxmT2nLHuegpFgsNJuoA0YBDoQ7D5RBBSKybAqlrdvC21HNjYRlEEbWKHxF3CcTLZ5/O9//6v3h104BZ4zzjgj7LfffuGWW24Jp556anj99dejnNJ8GXhEwnwbcCwYgDgiOEcfffRRPN+XQvSJ/mCw0Hdf//rXY35cHtqGATn33HNjfYiGUQaG1YPx+N3vfhcvVtTU16KKRaDbpt/IgvIZlCnkhZ6899574bzzzgsXXHBBNDonnHBCXM3xHDn99re/DX/84x/jig9dwbHAOWsWnJTzzz8/5pvSSLn08cknnxwjLkRXcRyzJhZ0Dx3yuoyeo6s2aeI4YrxsrCG34447LsqHxYcf76ShzKp4WwAYV9uKvOyyy+r5ep588sn4F/3koq4YaOwUdUJX/KLirbfequss9cP5sD5HF2mblUPb6QM/JluxiY3UtYpN81jfYUcM+pEymiXN0+pA3QzkabYQqsgwb05oBHaUcJ7Ix/qjqL722RbIXMgSR8JgoQmkLdJbbBfOmW+jHyPgddnqVTSuUrnR7/R/VWhP3vgrm8uqkqf7Jkvf5qK5HPycQh3tPeY0qz/jBVmbDQBfB/oO59b6O03fTLuL5rCemBu7m15x5g+BIbiddtqpHoViQmUl7DvbwEDTkaYkBopHPpMnT67dmcHUqVObMioG5fGuj5SxevAGAmeSCZhQrilsFbLaghFlZdqIc80KyurGoGGyLAKFI4rGCsgu5OShPzBSOFR///vf40rLuPnmm2PIeu21144hbrYY+WxQfzsvRPu+/PLL+DkF5++NN96IBgOnfpFFFomhdL/lC8j/N7/5TdwWQMY///nPY596eAcjZHz44YdhttlmixHAMtAdvxXj2+pBHxdaaKG4Zc1k5SHCRoSF/nvttdfiPQwSjvacc84Z9bkRcHCpE+8S2bvjjjvq0QNPI+VyzyJweX0C6B59SJ4GOkpforN5Yw3oK/om1admYeJigsX5p2/Q9Sysrhh6Lo4UEOVhMjWHg+9lWNsY46YPjH0MdCNjsoiqdW3GpmX1XauQJ3qEXTaZYB+oG3VM6QkZGix+cJbMEYCy+uIcID9kzYVTao6BRbh4J91KLcPGSB5ZfVN1XFWlaPyVzWWtQt7Uv+pcTp/hpJIm3f7mM/csD/LNg7Zik/N0vpl2F81hPTE3dje9wvmjw+g429awi2iQrXY9DAwbxB4/iFLYomvWGFKebT/4y4fBiYLQoWXbrSl5bcEYVZ08mQwp10LnyJFVTytwBoHtEyIQbBES2XrllVdqT2esuvjRAVtEnKPAqPst2KrgiODsIYNtt902RtT4nsK2Cc4hq7Wzzjorbv0xiDw4ej68zsD+4osvoiyLQPYYF1ar1re0LwuiM9QZJzU9p4HjRVkYGdtqJbKGs8j9Zgw6xoOta6JdOLFsLfREuUXOBfkVjTXGGX3TzkkeO4A9YJHCdlaWA0id2ObDgeJYB5EzJnl0i+/IgjRlWNtYnZs+2OUdjFaoWlerSyM2LavvmHjLFoRFkOekSZPqNsYu/4thT0/I0GAByRaf3wYvqy8LdBaKRH64WID6dmDbSU8fYRuq2nTS0Yd5NDuuGnHOisYfZZTNZa3Q6FwO6ANpcKaI4OL0cXHkxZ4x7pFLs7Sz3T01N3Y3vcL5Q+EZfOl5kDzMSPLPExiEi3mX8K8/f8A98k0HdyNQ3jLLLJMbcTCjgyKhoL5eZWS1hc9EcqpEKQBDQbnWPoxZK4YeqBN1YFWCI7nlllt2MUhHH310dEy+9rWvxWgSTlazMECIfOBQcWYtq58WXnjh6NxRDnUbPHhwNKIezvxh3Ol7jAURlXfffTeuzNADVvFZfYgh9itltifo7yzYfuEsB3UlnM8gpyy2UpmEWAAw2Pl3+Dj7wZkQjgLgoPnzLFX47ne/G7cLcPjoAxyCLNpdLqB7TCD+rA6yQy7oLKRjDbmxBUL/MWnipNlWD2k4mkE90U36xu6TRxGUa/3G5FI0CeBEsQ2IjtAGJnkmI6I7fluvDNL6+ncHVevaqE0zGXP+2GBxmo6XRqB+2INGbFtPyBCQGWfuvANYpb5E7ldfffU4Tmy7ENniuPAXyhZOyBnZGlaeRRFTqowrbKE/r0a/+6iZOXe2ZUk65GwUjb+yuaxVKLuRuZx52/QavbWgRRohxV4wTpqlne3uybmxO+kW5w8Pn1UVKyYONVYBTxqj7sOyee9iJG2wW1p+IYrisVLgOVuf3Cc/BgL5VwVDgKLwPspCfmw7MZCsPAtR8xzDbFuArF68EUrzSslqC1ugOBRZhj0LXwYXK5JWI384FP/85z/jr8wOPvjgaCDNOQKiDkxSrHqQCxG5vJVdGUwSL730UtymxVHLgq0BjCKrLs5WEoHDOHg4S0E9WGXhBFJHImbkaSttM7Ae+oD3TGc4GFzkYHCIl61nVuN77rln3fASEcTpwsDzwwp+tIOB5jv3bbu1KtRhiSWWiOf36AO2tdGvVEbtLhfQPXQQQ2d6RTvRVeQF6VhjvNOHwHhjK457PGOyoz9IT1/athCTxHPPPRffyQO9s7Fn4zkvekSbcZK9Y0Q0GbL6Pg/y9/XnanQL0JNlE6vWtVGbRtrUpnAmqUiny6B+nFHyeXIVTaatyrDMdnpoMzYaW0wZUFZfkz/9wvtAO7F5Ng+h8+Rj/ZOCnaXPLH/KK0rP/bJxlY6ddIyQB8eMaCvPsVe0xVM0/vLmsiy6ey7Hcff2A7tKmeY8Wx7sbLWiv422u4ienBu7k9kGDBjw1Ww4C9FGcLYxhjhHWQMNo8/qLG/CFEJ0FjihOBwc98hbTBTBxM7CjEP/vXFyF6KIXrHtK0R3g3GX4yeEMMq2aIXoy8j5E0II0TGw1ceWX9kWrRB9GW37CiGEEEJ0EIr8CSGEEEJ0EHL+hBBCCCE6CDl/QgghhBAdhJw/IYQQQogOQs6fEEIIIUQHIedPCCGEEKKDkPMnhBBCCNFByPkTQgghhOgg5PwJIYQQQnQQcv6EEEIIIToIOX9CCCGEEB1Ejzh/xx9/fHjsscfi397AxRdfHG666abat1kb2vFVtoX/JP2ee+4J2223Xe1Oz4Au3XXXXWGjjTaq3el70K/33Xdft8m2J/Jvp25ST3QNnWsH3aFD5EWe3WnryuxXO+VEXugI9pvL6wv16C1jsJ02vd16NivTE/rcKO22K42ATjAG+oJuKPI3izNs2LB49VYYJK06hzLGvY9ddtklTgrnnXde7c7MtKqbfWmRVkRvbSfj7ZhjjgnXX3992HjjjeN1++23hxVXXDE+P/DAA8P2228fHn/88fi9p2iHTREzmBVl+VXOeZdeemkYMmRI/DurI+dPCNEwSyyxRFh00UVDv379andEX2PJJZcM06dPD0888UTtTghnn312n5j4hOh0Mp2/pZZaKpx66qnh/vvvj6H+hx56KBx22GHx2fe+971www03hIcffjg+I83JJ58c5ptvvvgcDj/88DB27Nj4nL8rr7xy7ckMVllllXDBBReEBx98MDz66KPh3nvvDfvuu2/t6cwQcrZtBy5WyoatmrmynoN/n5DtggsuWHuSDe9bei4f8ubZbbfdFqMeyMWiUf6dsq20svyz8im676MG3Oc56agfxtqv7Cx9kbzyygKfPxfRgDxo1z777BOdhJNOOqlLPX0ZXGkdDORLPuRBXuk20wEHHFDPw+cPvt99X2WR1+a0vb588uf7FVdc0aUMX25aJ9tGyXuexcCBA+M4YqyMHj067L777vE+ZVGmlx2ffVsZl0ceeWQcY7z/yCOPhNNOOy0+82y22WaxXuPGjYtRPd5jXJsN4O+xxx4b01q/4vjR/3mypS7WPuSIHqKPpCfPVLc8vEfe2ArSUqax5ppr5ubRjHzzdCjNKy0rT2dgscUWq+tNnnwgr51eh7h8Hxu+/LJ2FtU1j6lTp4YFFlgg6l8W1BH5ICeTFf1b1O60XdZe6mPvcWW1F0ifZ1OA73l5NCMDsDpbXfN0jLamUTTuURZ/G2kj+Ve1K1nlkrdPk9X2Mll65p133i5tNlkYvm5F+k651NU/t/ZW1aO0balckZuXB2m9rLPqkCWfLNJ3rS5c9r4vKyWtq7X7qyDT+TvhhBPC1ltvHd54441w2WWXRScNmCAOPvjgsNxyy8XJCCG/8847YZtttglHHHFETLPXXnvFyePzzz8P1113XZw01lhjjfgMmFRIS4P/8Y9/hAsvvDB88sknMYy77bbb1lJ1pX///uHEE08Mtu2w7rrrdukcDOczzzxTf77BBhvUOwfFon72PlsYq666anyWBfWaa665wvDhw2N6OmjTTTft0kFLL710GDlyZBg0aFBcBdPZOLj2zrPPPhvlkEVR/tR5tdVWq9cV+UHe/RRkwjbNmDFjYrpDDz00TpRzzz13LcUMiuRV1JY0f9Isu+yyM+VvnHLKKXUdoe4WqqcM+tDaw1++pwYFkC/5kAd5+W0mFinoDnnwjO0oyyPt91GjRoUdd9yxSz8aRfLdcMMN6+3lOZPh0KFDa0+71uGpp56KxnS99dar12mZZZapy5ayMbITJkyIz5Ef+WW120C2m2yySbjjjjvCX//615h+jz32yGxHFoy1XXfdNbz//vvh2muvDXfffXf49NNPa09ngGE/6KCDwsILLxxuvvnmcMstt4Sjjz462oAXX3wxnHXWWeHNN9+M/Y8u3HrrrTEN+Tz99NOxTcioDNqCPqKXtJ2oUt44QVcYG+PHj4+yQgegKI9m5FukQzg9L7zwQj0vytphhx3is7Ixybunn356fDZx4sRc3ctrZxWbB1Y32pk36TRinzyMPfo1a9GVR1G70zGJvD/44IOZ7ArPka2NG0+eTYFm7VoR1Jn6USZlF+kYEVLGBDbDWH/99cOUKVOiLCmPcu29l19+uZZqZhqxK2Xk6WqRLFO23HLLOOdZ+fSjlZ/2a5GtrUrV8dPonJRFs7phFOldStl80pPM5Pxh8Ndee+0wefLk8Ktf/SpcfvnlcSI499xz41432z0PPPBA7HBzfJhYaNRKK60UO2iOOeaIisI7DBRzHmGLLbYI66yzTvjPf/4Tncxrrrkm/O1vf4tCyFMWFB+FgieffDJ8/PHH9XMngOE0o0lkBGVmywIYMHSmvU+dGUx54FhQnjkYTG5EOBiMBspIPkCdURwiofbOnXfeGdvjjbVRlj9Ka23D8bZ659330AdMUMgAKIN+QF6ePHmVtaVq/kVYGQwAawN/6SP6qhHeeuutcNVVV8XP9Af9wsIE0n6nzhjTvChGnnyRk8mKexhyKwN8HehLJjOiZ8BkgLxMFymbvkamgPyQdVG7P/vss/DnP/85jiXGy/PPPx8WWWSR8I1vfKOWIh/GGfJ+77334tk8ou2MR/LxfPvb3w4DBgyI0UHGM8YL40Tkh/dY1eJ8Avk999xzUWcAmeKUolNloCfoC+22theN+yyK8mhGvkU6xPcRI0bEz+TFhL/44ovH71A0Jr1+ow+pDSmjis3jzB1YOxlXqSz53oh9SkH30QXafskll0T9KCKv3dSDRa5/jnyJ8KR2hec4RjhOjdCsXcuDRQZOzdVXX12390U6Zp9tMW/l4hgYpj+kpe15NGJXqlBl/iiC9CYD/mIHrX8atbVVqDp+Wp2TWh0fUOR/pJTNJz3JTM4fkwCRAKJ+qUHHoyaih4E0pk2bFj766KMYzaJzcA7peP/uhx9+WPs0Y0WLIjKwLPz5ox/9KDqMs8+efQQRL5rQL2mZvOiYKtCxpMWRbQQcW8riwghT3zxoM2XstNNO9XeoI6F0b6w9efkzqIhMsurgGemK7qegRAwEU+JGKWtLq/kDZTCQcSw89BFl02etYv3OpGXtYOJaYYUVMgdlkXzJy293WMQlC8YF8vHjw0PZtsVi+SHronYz3pgIDMbWbLPNljtWPPTZQgstFN5+++36xJHCuMWRJLJ34403xnv0M3VivDMBUc9DDjkk6injtLfSjHzL8Ns56JNRdUw2S6M2j/GEbqQ0Y5+ywNEkUpEXoS8jb9wD+sZzxqjVEVl7R7sVmpEBuk6gAieEvjbKdAxHnXbi+HDRJ+aYWGSNdxrZ7iuzK2V0h64y7wNtoO1VbW276e45r90gr6rzSXcz0wzy2muvRYVFKETyPDiEGH8vFAboPPPMEzuAiMC7774blT9NY7z66qvRK2c7BWPiL7aTUjCCbCPbCpR0lFUFFIK0KIinyKgwMFi5WQiYEHfRKoKJmcmVdKS3y7aEU8ry5x3epZ2sOm2g5t1PMSNkMACLnFdPWVuyHLRG8gfKYGskyzC0Mog91u+E4H07uGzVlZIlX9qJIWBVaO+nC6JGYOKbNGlSve/tKvrFJI4eMgeOTODMffHFF3FBxd8vv/wyOnAG6Q0cOiIGRAo5spEFY52yOcrwy1/+Mhoj+hn58Zezv8jELotG9EaakW8ROH5McpYPxtpTdUw2SjM2j/Hk9cBo1D4V0Uqkomjco2eMK18/rqJtyEZoRgbYZHa4iP74fi3TMWRE5IeoGBdzptc92kR6IqnYFm9Lu5N266qPYDZqa9tJq3NSO8dHGe2eT1plJucPhWeFgePHnjs/xDjjjDPiDz7oaLaQWBHRsTzjsPT8888fQ9FMNIR/mYB++MMfhl/84hfh97//fdxGMv7973/HDmOS4RzBnHPOGc8Ekt7/aMSgIzEadBIQ5rXJsAoYb39eBsNa5NGnKwkGcJEikY4BXvWMQ1H+DEgblLTXDH7e/RS2B1ix2BkC6oOjWZWytmD4WskfKAPDhwGyPuEv3/32SKuQly+jiDz5ptEK8uKsTbMwRpig995779qdclhY7bbbblFvccQ4r8oEzFGJV155JTqBq6++enTc+IGG3+LkeAOLLJw/fvRB9A7jTzoP53eJWHDcgzOCnPPDKNF+2sxOwPLLLx/PDprRN8eT6OBRRx3Vtom6FZqRbx7oNnYGW2Xf2R4yqo7JZqhi87Bh6ATY+PFbV0bZmKYNeQfcfRvB9N9k0ghZ4576s62O7pGvL6udlMkgD8YOW77U1+pWRceIsjMmOWdn28OUi4Nh5TcjwzyYr5lD0BNArn7O9f3YrK7aVjaQF/1lbWvE1lI+um1bxrzDu81SZU7CB2DsWv2JgNp4alY3mqHd80mrzOT84cCdeeaZceLAwOy3337xwDkdxq9cODf03//+N54NxPnjl7McEueHG0BkgLNDOIQcTGd7l8FtEFnkrANnOjbffPN4/ohJJd3eMixkblsCdGwjyst2BQ6phenpZCKUeaDQdIiFZZncys4PUAZ18tsWRA2yKMofpUAhuE9eGEuc7Lz7KaxUWHlaCPv888+PBqys/p6itpC/GcOq+fMOK2Hkb/mkfcJftlfyVoq0CX1hi7zqdgl5+TK48t7Nk68vl2ccLG5lksfQXHTRRXExYnXiKpr0cO6IlmOwiN5hqK688so4jhhnTDRsAe+8887R4OMQevhlLz+6wmnbc889Mw0tY+8Pf/hDPIfLVhVnfM8555xYX84N4lgy2THp2XYPDiN9j1PImMpauLWKHytFMjKakW8e5IUz5ceS31atOiarkLazis0jqovceY6Oo+t55Tdinzy+jVZO0TgtIx336DTnxRlnbEv6sop+MZplU8poVgbeppK+io7hIKIr1JF3gfeYK618xiH5cL9VKIN+MV1N57giXa0qS+wOY4A8yIv+sraRV1VbS3s5k4etIh02FXk1S5U5yXYrTPavv/56l/HUrG40CvJq53zSKrMNGDDgy9pn0QfBKDF5EPFph6ERQgiRD04PjhCLh2YdZdE8LBo4NsGP5MxBFTNTfmpczLKwGmKFyUpPjp8QQnQ/tiVsEVwheiNy/voQOHv+H5Bk9Uk4nrC2EEKI7oOIE9vVbAm3a0tXiO5C275CCCGEEB2EIn9CCCGEEB2EnD8hhBBCiA5Czp8QQgghRAch508IIYQQooOQ8yeEEEII0UHI+RNCCCGE6CDk/AkhhBBCdBBy/oQQQgghOgg5f0IIIYQQHYScPyGEEEKIDkLOnxBCCCFEB5Hp/B1//PHhrrvuChtttFHtzgz4j6vvueeesN1229XuNA55kjdl5HHTTTeF++67L7cc3n3ssccK8+hOqBdyQB7dxcUXXxzlIGZ92jFu+ip5tqY7YVwxvqDdY/mraE87Se2zt0PICLtcJive6a0yoC3MHdYmay/3rK32rIiq6ZpF9l90N7028vfJJ5+EHXbYofbt/2GwbrrpprVvPUNvH4jd5Vz0hJPbXXUX3Y/6rqsj2de59NJLw5AhQ+LfIg488MCw/fbbh8cff7x2p3eAQ7vAAguE4cOHh2HDhsV7e++9d5g+fXrYeOONY725b8+KqJquCj1hZ4VI6dXbviuvvPJMq8ehQ4eGfv36hXfeead2RwghhChmueWWi46ed0oXX3zxMG3atNo3ITqHlpw/HzLnSrdqWRXbs3QbYLHFFovpefbQQw/NtOqZMGFC/Iuz51lvvfXiO59++mntzgxY1VlZXH41bpE7/trzqpE80rEqXGWVVeJ7th0Ca665Zqw799O2p7IpK8/Xn7wWXHDB2pMZ5LWP+/vss09YdNFFw0knnVQvp0geKcje2sHFu9zjL/mSv/Uf+dx2223xu/WbydbIWsmmZZA+q+5Z75LO609WHey+5Z/2h8fKOPvss3P7j8+mn1ZfT1FZ6bvojyeVBe3Lomx8GZbO54Msvc5R3zLdoF5pJI97lOv7A7L6zvCy8fkXccABB9TT+7wgzc/aae2mH03eXh8M/z7p55prrtqTbHz6MpljF+jftNyi9qT64eVDHnm6UaVeRqo7fOYepP2f1i8PyvNjM6+u/PXlpXVJZWXpr7jiinoaX6cieaX4tvlyyM/b8XPPPTeWmfYfefuy0zZa2Wm6ojpaWq70OflT59TOGiY7ky3YPV+GEI2S6/wttdRS4ZJLLqkrKxfKOffcc9dShDBw4MDwwgsvxMFDKJ1VlW3VoqwWYuf52LFj432Dd08//fT4bOLEiWHHHXfsovRs+z788MNxi9fuM1AYJM8++2z87unfv3848cQTY3633357WHfddbsYRwY5WF2pW5XBQ2ifto8fPz6+e8opp8T7yAHn79BDD623fa+99orPqC8TIg6sL88PYA/3t9lmm3r9r7/++rDqqqvWns4gr33UB6NJJJTnthVRJg+DuiL7UaNGxbS889Zbb8WtHfImX/L32zhLL710GDlyZBg0aFDpFhDQb7vvvnu4+uqr62WQb17dq5DWgb4kUmz6ho5Yf2RR1H/I6Zhjjgljxoyp13e11VaL7YCistJ3SbPsssvWx02evLMoGl8e+gVdY2EE1GGZZZaJl/U5EY5nnnkmfs7TjSeeeCIuqjbccMOYDtZff/0wZcqUmfo5r++QDflZ/vzle57uA7aG8U568lxxxRXr6ZEXzprJmrHobQIU2ZK0r7ApK6ywQnyWRVU9QuaMCewCdfJjoag9RbpVpBuN6Df5ePvDhR4B9aAO1Iv75FfVFnqK6uqxuqC7VhfewR6YbkKRzGgn7bX6vvzyy/F+Cum9HaUc04XUjh922GG5/Wfk2a2Uoj41mH8YfzxnzG2wwQbxOWXm2VlIxzag7+x+3XnnnbU7QjROrvPHQDZDYxfK+fHHH9dSzDgDMmLEiPjZlJRJxsCoMKiB1blXagYKgxPGjRsXldnSGk8++WS8j7LDVlttFQf+iy++GL97cEwtP96jnhgQg0HOmQ6gHkwCGFMMQzOQP84HeVl+tJf80sFpz/0A9nAf42b1R65PPfVU/GyUtS+l0fRsiQDvXHbZZfFzHkywqaEsgn6jffYOZRx33HHxc7P4OiBz+hIZm44he/rDTzCeov7D+WGyGj16dExLfdE7HKGystJ3SUM5lOepIu+y8eV5+umno5NE/ehnHLa33347fqZe1A89gDzdMDmYc2VtNaexDEvvxzZ/6fs83QdszVVXXRU/02b61uRDnaivyZp2prYiz5Zk9RUTLbYgi6z0ZXqURVF7inTLSHWj0XrZbonVAdAj3qUfsC02drhHvuRPOY1SpsdmC3GgDNqODPwio0hmYHpPfZlLskjtKOXgUNr80ShV7VaVPkXn0D0gHc7ekksuGb+XQV8T9DBnknx539opRDO0fObPh7JxEA0UHaPMqi8N81fFBhGDECPHAMD4Z0H+Fp6nTAxjEVOnTo2GoTtgUNt2mMlmp512inVKDSzfuT958uTanWwabV/V9BhTVqoYf9L6rYx2ULV9rcBETxnI2ORNm+mDIoc3DyYd8vSRb3SbCaisLN5lIrBJOqVReeeNrxQmy/nnnz9OdEwOOGxvvPFG/GyTk00WRbqBM2gLLi7GiE1qZSAb3mVseeh7ymjGuQAiOiYDHEG/+1BEXn3yaLceZVGkW3m60Wi98nQwbywiH3OYq1JVj7GFRJN9VJB3qZ937oqwqDLlpNuihrUNWZqMkDFR3qpOlqcRu1XUp+2AcYuzx1imXuwksMgRohVacv4Y8ByWRdFt0HlwALnPqo/weTMOoK1wd9tttzgAbBXmId9ddtmlXh5GCeNSBAah7OxPs2BMJ02aNFPkNOsXcHmG0BuORtvXaHrqQN1IC2UOSSM0auibgYmFKJdtZdlVdVs6BYNv20P+YhIqKyvL0UHXvMNSVd5l48tjEwTp0B2cOBZKTBRs89qh9jLd8BMNFw5kqrN5IBsm+qzJljKq5uPB8SMSaWMp3X0oIqs+Nqln0W49yqJItyBLNxqtV5YOQtFYfP/992M5jVBFj4scyyqOlYF8KIfoN45vXtvYUvUy4kLXG6VIVillfdoOWMzhaA8ePDh+54iGEK3QtPNnRtQGMN9RToPQvDl7RCWqGuwUJiMGIWfg8lY7GHe/uiTSkRp4VshWH6KInA2xbRQmmLwVZTMwMHEs+WcEqsDE7M/kUU+/oq/SPk8j6SmTScVo5pdvvEPfm/w4o+PLw3DZGRegzFNPPTV+TqHO1B3HA6yviqAPcVL8Wa9WwHHivJydOfKUlcVkR0TGtt5I4/9poqry5r2i8ZUFcl599dVjtI5xYxME71nEvIpuMM7Ih3NLLL6qgmyYnOkv02Xrv6pbxylMvt5xRC+qRv54h3f9GUH6JS/C1W49yqJIt/J0o9F6UQZ96u0P9ph307HIPfJtxMmHqnps50j9+UTajgyoZxnUj3Ks3UUOI23zutcqVe1WUZ+2C9vCJvqLTK2vKLPsxz9CZNG084fy4TzZVsT555/fZRuVlSpbNDxjpXb//fc3vXpmMnrzzTdzVzu2LWVhd4w9Rt/D+xg5qw9nOWxFyATDpJVn/JgAGdy8W2WAk89FF10UHTresSvvXc4iUh/qRTrq+dxzz9WelrcPuRKt4X1W31XkYeAEEB2yOuIonHnmmfEZDgTb7vRjkXNsZ3WsvNdff71LeciZvLw+fPjhh/FZWndkxxk5jC5pOUid1+8eZEiZfuslKxJRBerKj24wqJaXP7pQVBbtIdJt7zIuOGxvi58ieXvKxlcWNpna4X7y4B0uk2EV3SAt79AvyCKPtO8g1WX+cvyjmegL+LHHhewaWUgSffF9xbmwvDN/0KgeYZvQVa8fRRTpVpFuNFIvyuAHMN7+LL/88lEf0rFIftg+8m+ERvSY6DLOqKXFQaN+Rbpl8D7/8oG1m3exrdxPoW1e97haWdQX2S1PUZ9WgffL7CztxUGHKk6zEGXMNmDAgC9rn/ss/JKNrbCsMDwD7aijjooTdhVjJERfhzHBRIfz2azTJoRoL0XzmBCN0vIPPmZ1WFExmOT4CTED2y60KKEQ4quFKCKRXP3QQ7SLjnf+hBAzYIJhu4pJJm9rTQjRcxCFZyuYLWGOTzR7dEqIlI7Y9hVCCCGEEDNQ5E8IIYQQooOQ8yeEEEII0UHI+RNCCCGE6CDk/AkhhBBCdBBy/oQQQgghOgg5f0IIIYQQHYScPyGEEEKIDkLOnxBCCCFEByHnTwghhBCig5DzJ4QQQgjRQcj5E0IIIYToIOT8CSGEEEJ0EHL+hBBCCCE6CDl/QgghhBAdhJw/IYQQQogOQs6fEEIIIUQHIedPCCGEEKKDkPMnhBBCCNExhPB/v8wFnHf7pHoAAAAASUVORK5CYII=;" vertex="1" parent="1">
          <mxGeometry x="-190" y="680" width="639" height="121" as="geometry" />
        </mxCell>
      </root>
    </mxGraphModel>
  </diagram>
</mxfile>
